<svg version="1.1" viewBox="0.0 0.0 512.0 512.0" fill="none" stroke="none" stroke-linecap="square" stroke-miterlimit="10" xmlns:xlink="http://www.w3.org/1999/xlink" xmlns="http://www.w3.org/2000/svg"><clipPath id="p.0"><path d="m0 0l512.0 0l0 512.0l-512.0 0l0 -512.0z" clip-rule="nonzero"/></clipPath><g clip-path="url(#p.0)"><path fill="#000000" fill-opacity="0.0" d="m0 0l512.0 0l0 512.0l-512.0 0z" fill-rule="evenodd"/><path fill="#f1c232" d="m132.41077 168.93591l53.779526 49.42914l0 49.42914l-107.55906 -98.85828z" fill-rule="evenodd"/><path stroke="#f1c232" stroke-width="1.0" stroke-linejoin="round" stroke-linecap="butt" d="m132.41077 168.93591l53.779526 49.42914l0 49.42914l-107.55906 -98.85828z" fill-rule="evenodd"/><path fill="#f1c232" d="m132.41077 267.7942l-53.779533 -49.42914l0 -49.42914l107.55906 98.85828z" fill-rule="evenodd"/><path stroke="#f1c232" stroke-width="1.0" stroke-linejoin="round" stroke-linecap="butt" d="m132.41077 267.7942l-53.779533 -49.42914l0 -49.42914l107.55906 98.85828z" fill-rule="evenodd"/><path fill="#f1c232" d="m132.41077 284.57568l53.779526 49.42914l0 49.42914l-107.55906 -98.85828z" fill-rule="evenodd"/><path stroke="#f1c232" stroke-width="1.0" stroke-linejoin="round" stroke-linecap="butt" d="m132.41077 284.57568l53.779526 49.42914l0 49.42914l-107.55906 -98.85828z" fill-rule="evenodd"/><path fill="#f1c232" d="m132.41077 383.43396l-53.779533 -49.42914l0 -49.42914l107.55906 98.85828z" fill-rule="evenodd"/><path stroke="#f1c232" stroke-width="1.0" stroke-linejoin="round" stroke-linecap="butt" d="m132.41077 383.43396l-53.779533 -49.42914l0 -49.42914l107.55906 98.85828z" fill-rule="evenodd"/><path fill="#f1c232" d="m132.41077 400.21545l53.779526 49.42914l0 49.429108l-107.55906 -98.858246z" fill-rule="evenodd"/><path stroke="#f1c232" stroke-width="1.0" stroke-linejoin="round" stroke-linecap="butt" d="m132.41077 400.21545l53.779526 49.42914l0 49.429108l-107.55906 -98.858246z" fill-rule="evenodd"/><path fill="#f1c232" d="m132.41077 499.0737l-53.779533 -49.429108l0 -49.42914l107.55906 98.858246z" fill-rule="evenodd"/><path stroke="#f1c232" stroke-width="1.0" stroke-linejoin="round" stroke-linecap="butt" d="m132.41077 499.0737l-53.779533 -49.429108l0 -49.42914l107.55906 98.858246z" fill-rule="evenodd"/><path fill="#f1c232" d="m352.18372 214.01598l-49.429108 53.779526l-49.429153 0l98.85826 -107.55905z" fill-rule="evenodd"/><path stroke="#f1c232" stroke-width="1.0" stroke-linejoin="round" stroke-linecap="butt" d="m352.18372 214.01598l-49.429108 53.779526l-49.429153 0l98.85826 -107.55905z" fill-rule="evenodd"/><path fill="#f1c232" d="m253.32545 214.01598l49.429153 -53.779526l49.429108 0l-98.85826 107.55905z" fill-rule="evenodd"/><path stroke="#f1c232" stroke-width="1.0" stroke-linejoin="round" stroke-linecap="butt" d="m253.32545 214.01598l49.429153 -53.779526l49.429108 0l-98.85826 107.55905z" fill-rule="evenodd"/><path fill="#f1c232" d="m253.93431 59.583424l4.1105194 89.20772l-42.5486 42.5486l-8.221039 -178.41544z" fill-rule="evenodd"/><path stroke="#f1c232" stroke-width="1.0" stroke-linejoin="round" stroke-linecap="butt" d="m253.93431 59.583424l4.1105194 89.20772l-42.5486 42.5486l-8.221039 -178.41544z" fill-rule="evenodd"/><path fill="#f1c232" d="m168.83713 144.68062l-4.1105194 -89.20772l42.548584 -42.5486l8.221039 178.41544z" fill-rule="evenodd"/><path stroke="#f1c232" stroke-width="1.0" stroke-linejoin="round" stroke-linecap="butt" d="m168.83713 144.68062l-4.1105194 -89.20772l42.548584 -42.5486l8.221039 178.41544z" fill-rule="evenodd"/><path fill="#000000" fill-opacity="0.0" d="m259.82416 295.2535l127.52756 -0.18899536" fill-rule="evenodd"/><path stroke="#bf9000" stroke-width="8.0" stroke-linejoin="round" stroke-linecap="butt" d="m259.82416 295.2535l127.52756 -0.18899536" fill-rule="evenodd"/><path fill="#000000" fill-opacity="0.0" d="m304.71063 295.06125l45.314972 39.606293" fill-rule="evenodd"/><path stroke="#bf9000" stroke-width="8.0" stroke-linejoin="round" stroke-linecap="butt" d="m304.71063 295.06125l45.314972 39.606293" fill-rule="evenodd"/><path fill="#000000" fill-opacity="0.0" d="m347.53018 333.87402l41.039368 0.3779602" fill-rule="evenodd"/><path stroke="#bf9000" stroke-width="8.0" stroke-linejoin="round" stroke-linecap="butt" d="m347.53018 333.87402l41.039368 0.3779602" fill-rule="evenodd"/><path fill="#000000" fill-opacity="0.0" d="m259.8353 375.28107l102.75592 -0.669281" fill-rule="evenodd"/><path stroke="#bf9000" stroke-width="8.0" stroke-linejoin="round" stroke-linecap="butt" d="m259.8353 375.28107l102.75592 -0.669281" fill-rule="evenodd"/><path fill="#000000" fill-opacity="0.0" d="m304.71063 375.06125l45.314972 39.606293" fill-rule="evenodd"/><path stroke="#bf9000" stroke-width="8.0" stroke-linejoin="round" stroke-linecap="butt" d="m304.71063 375.06125l45.314972 39.606293" fill-rule="evenodd"/><path fill="#000000" fill-opacity="0.0" d="m347.53018 413.7349l41.039368 0.50393677" fill-rule="evenodd"/><path stroke="#bf9000" stroke-width="8.0" stroke-linejoin="round" stroke-linecap="butt" d="m347.53018 413.7349l41.039368 0.50393677" fill-rule="evenodd"/><path fill="#000000" fill-opacity="0.0" d="m259.63846 488.8375l44.8425 -38.93701" fill-rule="evenodd"/><path stroke="#bf9000" stroke-width="8.0" stroke-linejoin="round" stroke-linecap="butt" d="m259.63846 488.8375l44.8425 -38.93701" fill-rule="evenodd"/><path fill="#000000" fill-opacity="0.0" d="m301.90552 450.8714l85.44882 -1.4173279" fill-rule="evenodd"/><path stroke="#bf9000" stroke-width="8.0" stroke-linejoin="round" stroke-linecap="butt" d="m301.90552 450.8714l85.44882 -1.4173279" fill-rule="evenodd"/><path fill="#000000" fill-opacity="0.0" d="m344.33334 449.89066l0 40.748016" fill-rule="evenodd"/><path stroke="#bf9000" stroke-width="8.0" stroke-linejoin="round" stroke-linecap="butt" d="m344.33334 449.89066l0 40.748016" fill-rule="evenodd"/><path fill="#000000" fill-opacity="0.0" d="m340.30447 490.14172l78.33069 0.06298828" fill-rule="evenodd"/><path stroke="#bf9000" stroke-width="8.0" stroke-linejoin="round" stroke-linecap="butt" d="m340.30447 490.14172l78.33069 0.06298828" fill-rule="evenodd"/><path fill="#bf9000" d="m387.3517 295.0645l0 0c0 -4.1638794 3.296173 -7.5393677 7.3621826 -7.5393677l0 0c1.9526062 0 3.8251953 0.79434204 5.2058716 2.208252c1.3806763 1.4139099 2.1563416 3.3315735 2.1563416 5.3311157l0 0c0 4.1638794 -3.296173 7.539398 -7.362213 7.539398l0 0c-4.0660095 0 -7.3621826 -3.3755188 -7.3621826 -7.539398z" fill-rule="evenodd"/><path stroke="#bf9000" stroke-width="8.0" stroke-linejoin="round" stroke-linecap="butt" d="m387.3517 295.0645l0 0c0 -4.1638794 3.296173 -7.5393677 7.3621826 -7.5393677l0 0c1.9526062 0 3.8251953 0.79434204 5.2058716 2.208252c1.3806763 1.4139099 2.1563416 3.3315735 2.1563416 5.3311157l0 0c0 4.1638794 -3.296173 7.539398 -7.362213 7.539398l0 0c-4.0660095 0 -7.3621826 -3.3755188 -7.3621826 -7.539398z" fill-rule="evenodd"/><path fill="#bf9000" d="m388.5656 334.00482l0 0c0 -4.1638794 3.296173 -7.5393677 7.362213 -7.5393677l0 0c1.9525757 0 3.8251648 0.7943115 5.2058716 2.2082214c1.3806763 1.4139099 2.1563416 3.3315735 2.1563416 5.3311462l0 0c0 4.1638794 -3.296173 7.5393677 -7.362213 7.5393677l0 0c-4.06604 0 -7.362213 -3.3754883 -7.362213 -7.5393677z" fill-rule="evenodd"/><path stroke="#bf9000" stroke-width="8.0" stroke-linejoin="round" stroke-linecap="butt" d="m388.5656 334.00482l0 0c0 -4.1638794 3.296173 -7.5393677 7.362213 -7.5393677l0 0c1.9525757 0 3.8251648 0.7943115 5.2058716 2.2082214c1.3806763 1.4139099 2.1563416 3.3315735 2.1563416 5.3311462l0 0c0 4.1638794 -3.296173 7.5393677 -7.362213 7.5393677l0 0c-4.06604 0 -7.362213 -3.3754883 -7.362213 -7.5393677z" fill-rule="evenodd"/><path fill="#bf9000" d="m362.59122 374.9464l0 0c0 -4.1638794 3.296173 -7.5393677 7.3621826 -7.5393677l0 0c1.9525757 0 3.8251953 0.79434204 5.2058716 2.2082214c1.3806763 1.4139099 2.1563416 3.3315735 2.1563416 5.3311462l0 0c0 4.1638794 -3.296173 7.5393677 -7.362213 7.5393677l0 0c-4.0660095 0 -7.3621826 -3.3754883 -7.3621826 -7.5393677z" fill-rule="evenodd"/><path stroke="#bf9000" stroke-width="8.0" stroke-linejoin="round" stroke-linecap="butt" d="m362.59122 374.9464l0 0c0 -4.1638794 3.296173 -7.5393677 7.3621826 -7.5393677l0 0c1.9525757 0 3.8251953 0.79434204 5.2058716 2.2082214c1.3806763 1.4139099 2.1563416 3.3315735 2.1563416 5.3311462l0 0c0 4.1638794 -3.296173 7.5393677 -7.362213 7.5393677l0 0c-4.0660095 0 -7.3621826 -3.3754883 -7.3621826 -7.5393677z" fill-rule="evenodd"/><path fill="#bf9000" d="m388.5656 414.2476l0 0c0 -4.1638794 3.296173 -7.5393677 7.362213 -7.5393677l0 0c1.9525757 0 3.8251648 0.79434204 5.2058716 2.208252c1.3806763 1.4138794 2.1563416 3.3315735 2.1563416 5.3311157l0 0c0 4.1638794 -3.296173 7.5393677 -7.362213 7.5393677l0 0c-4.06604 0 -7.362213 -3.3754883 -7.362213 -7.5393677z" fill-rule="evenodd"/><path stroke="#bf9000" stroke-width="8.0" stroke-linejoin="round" stroke-linecap="butt" d="m388.5656 414.2476l0 0c0 -4.1638794 3.296173 -7.5393677 7.362213 -7.5393677l0 0c1.9525757 0 3.8251648 0.79434204 5.2058716 2.208252c1.3806763 1.4138794 2.1563416 3.3315735 2.1563416 5.3311157l0 0c0 4.1638794 -3.296173 7.5393677 -7.362213 7.5393677l0 0c-4.06604 0 -7.362213 -3.3754883 -7.362213 -7.5393677z" fill-rule="evenodd"/><path fill="#bf9000" d="m387.3517 449.6446l0 0c0 -4.1638794 3.296173 -7.5393677 7.3621826 -7.5393677l0 0c1.9526062 0 3.8251953 0.7943115 5.2058716 2.2082214c1.3806763 1.4139099 2.1563416 3.3315735 2.1563416 5.3311462l0 0c0 4.1638794 -3.296173 7.5393677 -7.362213 7.5393677l0 0c-4.0660095 0 -7.3621826 -3.3754883 -7.3621826 -7.5393677z" fill-rule="evenodd"/><path stroke="#bf9000" stroke-width="8.0" stroke-linejoin="round" stroke-linecap="butt" d="m387.3517 449.6446l0 0c0 -4.1638794 3.296173 -7.5393677 7.3621826 -7.5393677l0 0c1.9526062 0 3.8251953 0.7943115 5.2058716 2.2082214c1.3806763 1.4139099 2.1563416 3.3315735 2.1563416 5.3311462l0 0c0 4.1638794 -3.296173 7.5393677 -7.362213 7.5393677l0 0c-4.0660095 0 -7.3621826 -3.3754883 -7.3621826 -7.5393677z" fill-rule="evenodd"/><path fill="#bf9000" d="m418.64435 489.97266l0 0c0 -4.1638794 3.296173 -7.5393677 7.362213 -7.5393677l0 0c1.9525757 0 3.8251953 0.79434204 5.2058716 2.2082214c1.3806763 1.4139099 2.1563416 3.3315735 2.1563416 5.3311462l0 0c0 4.1638794 -3.296173 7.5393677 -7.362213 7.5393677l0 0c-4.06604 0 -7.362213 -3.3754883 -7.362213 -7.5393677z" fill-rule="evenodd"/><path stroke="#bf9000" stroke-width="8.0" stroke-linejoin="round" stroke-linecap="butt" d="m418.64435 489.97266l0 0c0 -4.1638794 3.296173 -7.5393677 7.362213 -7.5393677l0 0c1.9525757 0 3.8251953 0.79434204 5.2058716 2.2082214c1.3806763 1.4139099 2.1563416 3.3315735 2.1563416 5.3311462l0 0c0 4.1638794 -3.296173 7.5393677 -7.362213 7.5393677l0 0c-4.06604 0 -7.362213 -3.3754883 -7.362213 -7.5393677z" fill-rule="evenodd"/></g></svg>