<svg version="1.1" viewBox="0.0 0.0 1024.0 1024.0" fill="none" stroke="none" stroke-linecap="square" stroke-miterlimit="10" xmlns:xlink="http://www.w3.org/1999/xlink" xmlns="http://www.w3.org/2000/svg"><clipPath id="p.0"><path d="m0 0l1024.0 0l0 1024.0l-1024.0 0l0 -1024.0z" clip-rule="nonzero"/></clipPath><g clip-path="url(#p.0)"><path fill="#000000" fill-opacity="0.0" d="m0 0l1024.0 0l0 1024.0l-1024.0 0z" fill-rule="evenodd"/><path fill="#6aa84f" d="m254.20021 329.71045l112.157486 103.63779l0 103.63779l-224.31497 -207.27557z" fill-rule="evenodd"/><path stroke="#6aa84f" stroke-width="1.0" stroke-linejoin="round" stroke-linecap="butt" d="m254.20021 329.71045l112.157486 103.63779l0 103.63779l-224.31497 -207.27557z" fill-rule="evenodd"/><path fill="#6aa84f" d="m253.43045 536.1887l-112.157486 -103.63782l0 -103.63779l224.31496 207.2756z" fill-rule="evenodd"/><path stroke="#6aa84f" stroke-width="1.0" stroke-linejoin="round" stroke-linecap="butt" d="m253.43045 536.1887l-112.157486 -103.63782l0 -103.63779l224.31496 207.2756z" fill-rule="evenodd"/><path fill="#6aa84f" d="m254.20021 571.239l112.157486 103.63782l0 103.63782l-224.31497 -207.27563z" fill-rule="evenodd"/><path stroke="#6aa84f" stroke-width="1.0" stroke-linejoin="round" stroke-linecap="butt" d="m254.20021 571.239l112.157486 103.63782l0 103.63782l-224.31497 -207.27563z" fill-rule="evenodd"/><path fill="#6aa84f" d="m253.43045 777.7173l-112.157486 -103.63776l0 -103.63782l224.31496 207.27557z" fill-rule="evenodd"/><path stroke="#6aa84f" stroke-width="1.0" stroke-linejoin="round" stroke-linecap="butt" d="m253.43045 777.7173l-112.157486 -103.63776l0 -103.63782l224.31496 207.27557z" fill-rule="evenodd"/><path fill="#6aa84f" d="m254.20021 812.76764l112.157486 103.63776l0 103.63782l-224.31497 -207.27557z" fill-rule="evenodd"/><path stroke="#6aa84f" stroke-width="1.0" stroke-linejoin="round" stroke-linecap="butt" d="m254.20021 812.76764l112.157486 103.63776l0 103.63782l-224.31497 -207.27557z" fill-rule="evenodd"/><path fill="#6aa84f" d="m253.43045 1019.2459l-112.157486 -103.63782l0 -103.63776l224.31496 207.27557z" fill-rule="evenodd"/><path stroke="#6aa84f" stroke-width="1.0" stroke-linejoin="round" stroke-linecap="butt" d="m253.43045 1019.2459l-112.157486 -103.63782l0 -103.63776l224.31496 207.27557z" fill-rule="evenodd"/><path fill="#6aa84f" d="m712.5078 423.9469l-103.267334 112.34546l-103.267365 0l206.5347 -224.69089z" fill-rule="evenodd"/><path stroke="#6aa84f" stroke-width="1.0" stroke-linejoin="round" stroke-linecap="butt" d="m712.5078 423.9469l-103.267334 112.34546l-103.267365 0l206.5347 -224.69089z" fill-rule="evenodd"/><path fill="#6aa84f" d="m505.9731 423.9469l103.267365 -112.34543l103.267334 0l-206.5347 224.69089z" fill-rule="evenodd"/><path stroke="#6aa84f" stroke-width="1.0" stroke-linejoin="round" stroke-linecap="butt" d="m505.9731 423.9469l103.267365 -112.34543l103.267334 0l-206.5347 224.69089z" fill-rule="evenodd"/><path fill="#6aa84f" d="m508.5522 101.71212l7.4802856 185.874l-89.73227 88.81891l-14.960632 -371.74802z" fill-rule="evenodd"/><path stroke="#6aa84f" stroke-width="1.0" stroke-linejoin="round" stroke-linecap="butt" d="m508.5522 101.71212l7.4802856 185.874l-89.73227 88.81891l-14.960632 -371.74802z" fill-rule="evenodd"/><path fill="#6aa84f" d="m329.61423 278.65164l-7.480316 -185.87402l89.73227 -88.8189l14.960632 371.74805z" fill-rule="evenodd"/><path stroke="#6aa84f" stroke-width="1.0" stroke-linejoin="round" stroke-linecap="butt" d="m329.61423 278.65164l-7.480316 -185.87402l89.73227 -88.8189l14.960632 371.74805z" fill-rule="evenodd"/><path fill="#000000" fill-opacity="0.0" d="m521.1158 593.84033l266.2047 0" fill-rule="evenodd"/><path stroke="#38761d" stroke-width="24.0" stroke-linejoin="round" stroke-linecap="butt" d="m521.1158 593.84033l266.2047 0" fill-rule="evenodd"/><path fill="#000000" fill-opacity="0.0" d="m614.3807 593.1395l95.71655 82.2677" fill-rule="evenodd"/><path stroke="#38761d" stroke-width="24.0" stroke-linejoin="round" stroke-linecap="butt" d="m614.3807 593.1395l95.71655 82.2677" fill-rule="evenodd"/><path fill="#000000" fill-opacity="0.0" d="m700.77435 672.41785l89.7323 3.2755737" fill-rule="evenodd"/><path stroke="#38761d" stroke-width="24.0" stroke-linejoin="round" stroke-linecap="butt" d="m700.77435 672.41785l89.7323 3.2755737" fill-rule="evenodd"/><path fill="#000000" fill-opacity="0.0" d="m520.4718 760.68896l215.33856 0" fill-rule="evenodd"/><path stroke="#38761d" stroke-width="24.0" stroke-linejoin="round" stroke-linecap="butt" d="m520.4718 760.68896l215.33856 0" fill-rule="evenodd"/><path fill="#000000" fill-opacity="0.0" d="m614.3807 760.2298l95.71655 82.26776" fill-rule="evenodd"/><path stroke="#38761d" stroke-width="24.0" stroke-linejoin="round" stroke-linecap="butt" d="m614.3807 760.2298l95.71655 82.26776" fill-rule="evenodd"/><path fill="#000000" fill-opacity="0.0" d="m700.9941 840.0071l89.7323 3.2755737" fill-rule="evenodd"/><path stroke="#38761d" stroke-width="24.0" stroke-linejoin="round" stroke-linecap="butt" d="m700.9941 840.0071l89.7323 3.2755737" fill-rule="evenodd"/><path fill="#000000" fill-opacity="0.0" d="m520.4719 988.20746l92.72443 -82.2677" fill-rule="evenodd"/><path stroke="#38761d" stroke-width="24.0" stroke-linejoin="round" stroke-linecap="butt" d="m520.4719 988.20746l92.72443 -82.2677" fill-rule="evenodd"/><path fill="#000000" fill-opacity="0.0" d="m605.3744 909.24475l182.45667 -3.2756348" fill-rule="evenodd"/><path stroke="#38761d" stroke-width="24.0" stroke-linejoin="round" stroke-linecap="butt" d="m605.3744 909.24475l182.45667 -3.2756348" fill-rule="evenodd"/><path fill="#000000" fill-opacity="0.0" d="m697.70966 906.8619l0 95.433105" fill-rule="evenodd"/><path stroke="#38761d" stroke-width="24.0" stroke-linejoin="round" stroke-linecap="butt" d="m697.70966 906.8619l0 95.433105" fill-rule="evenodd"/><path fill="#000000" fill-opacity="0.0" d="m685.5986 990.7725l167.4961 0" fill-rule="evenodd"/><path stroke="#38761d" stroke-width="24.0" stroke-linejoin="round" stroke-linecap="butt" d="m685.5986 990.7725l167.4961 0" fill-rule="evenodd"/><path fill="#38761d" d="m787.3205 593.84033l0 0c0 -9.080078 6.69812 -16.440918 14.960632 -16.440918l0 0c3.9677734 0 7.7730713 1.7321777 10.578735 4.8154297c2.805664 3.083252 4.381897 7.2650757 4.381897 11.625488l0 0c0 9.080078 -6.69812 16.440979 -14.960632 16.440979l0 0c-8.262512 0 -14.960632 -7.360901 -14.960632 -16.440979z" fill-rule="evenodd"/><path stroke="#38761d" stroke-width="24.0" stroke-linejoin="round" stroke-linecap="butt" d="m787.3205 593.84033l0 0c0 -9.080078 6.69812 -16.440918 14.960632 -16.440918l0 0c3.9677734 0 7.7730713 1.7321777 10.578735 4.8154297c2.805664 3.083252 4.381897 7.2650757 4.381897 11.625488l0 0c0 9.080078 -6.69812 16.440979 -14.960632 16.440979l0 0c-8.262512 0 -14.960632 -7.360901 -14.960632 -16.440979z" fill-rule="evenodd"/><path fill="#38761d" d="m789.8608 675.1722l0 0c0 -9.080139 6.69812 -16.440979 14.960632 -16.440979l0 0c3.9677734 0 7.7730713 1.7321777 10.578735 4.8154297c2.805664 3.083313 4.381897 7.2651367 4.381897 11.625549l0 0c0 9.080078 -6.69812 16.440918 -14.960632 16.440918l0 0c-8.262512 0 -14.960632 -7.36084 -14.960632 -16.440918z" fill-rule="evenodd"/><path stroke="#38761d" stroke-width="24.0" stroke-linejoin="round" stroke-linecap="butt" d="m789.8608 675.1722l0 0c0 -9.080139 6.69812 -16.440979 14.960632 -16.440979l0 0c3.9677734 0 7.7730713 1.7321777 10.578735 4.8154297c2.805664 3.083313 4.381897 7.2651367 4.381897 11.625549l0 0c0 9.080078 -6.69812 16.440918 -14.960632 16.440918l0 0c-8.262512 0 -14.960632 -7.36084 -14.960632 -16.440918z" fill-rule="evenodd"/><path fill="#38761d" d="m735.5051 760.684l0 0c0 -9.080139 6.69812 -16.440979 14.960632 -16.440979l0 0c3.9678345 0 7.7731323 1.7321777 10.578796 4.8154297c2.805664 3.083313 4.381836 7.2651367 4.381836 11.625549l0 0c0 9.080078 -6.698059 16.440918 -14.960632 16.440918l0 0c-8.262512 0 -14.960632 -7.36084 -14.960632 -16.440918z" fill-rule="evenodd"/><path stroke="#38761d" stroke-width="24.0" stroke-linejoin="round" stroke-linecap="butt" d="m735.5051 760.684l0 0c0 -9.080139 6.69812 -16.440979 14.960632 -16.440979l0 0c3.9678345 0 7.7731323 1.7321777 10.578796 4.8154297c2.805664 3.083313 4.381836 7.2651367 4.381836 11.625549l0 0c0 9.080078 -6.698059 16.440918 -14.960632 16.440918l0 0c-8.262512 0 -14.960632 -7.36084 -14.960632 -16.440918z" fill-rule="evenodd"/><path fill="#38761d" d="m789.8608 842.7696l0 0c0 -9.080078 6.69812 -16.440979 14.960632 -16.440979l0 0c3.9677734 0 7.7730713 1.7321777 10.578735 4.8154297c2.805664 3.083313 4.381897 7.2651367 4.381897 11.625549l0 0c0 9.080078 -6.69812 16.440918 -14.960632 16.440918l0 0c-8.262512 0 -14.960632 -7.36084 -14.960632 -16.440918z" fill-rule="evenodd"/><path stroke="#38761d" stroke-width="24.0" stroke-linejoin="round" stroke-linecap="butt" d="m789.8608 842.7696l0 0c0 -9.080078 6.69812 -16.440979 14.960632 -16.440979l0 0c3.9677734 0 7.7730713 1.7321777 10.578735 4.8154297c2.805664 3.083313 4.381897 7.2651367 4.381897 11.625549l0 0c0 9.080078 -6.69812 16.440918 -14.960632 16.440918l0 0c-8.262512 0 -14.960632 -7.36084 -14.960632 -16.440918z" fill-rule="evenodd"/><path fill="#38761d" d="m787.73254 907.04193l0 0c0 -9.080078 6.69812 -16.440918 14.960632 -16.440918l0 0c3.9678345 0 7.7731323 1.7321777 10.578796 4.8154297c2.805664 3.083252 4.381836 7.2650757 4.381836 11.625488l0 0c0 9.080078 -6.698059 16.440979 -14.960632 16.440979l0 0c-8.262512 0 -14.960632 -7.360901 -14.960632 -16.440979z" fill-rule="evenodd"/><path stroke="#38761d" stroke-width="24.0" stroke-linejoin="round" stroke-linecap="butt" d="m787.73254 907.04193l0 0c0 -9.080078 6.69812 -16.440918 14.960632 -16.440918l0 0c3.9678345 0 7.7731323 1.7321777 10.578796 4.8154297c2.805664 3.083252 4.381836 7.2650757 4.381836 11.625488l0 0c0 9.080078 -6.698059 16.440979 -14.960632 16.440979l0 0c-8.262512 0 -14.960632 -7.360901 -14.960632 -16.440979z" fill-rule="evenodd"/><path fill="#38761d" d="m853.21747 991.2724l0 0c0 -9.080078 6.69812 -16.440979 14.960632 -16.440979l0 0c3.9678345 0 7.7731323 1.7321777 10.578796 4.8154297c2.805664 3.083313 4.381836 7.2651367 4.381836 11.625549l0 0c0 9.080078 -6.69812 16.440918 -14.960632 16.440918l0 0c-8.262512 0 -14.960632 -7.36084 -14.960632 -16.440918z" fill-rule="evenodd"/><path stroke="#38761d" stroke-width="24.0" stroke-linejoin="round" stroke-linecap="butt" d="m853.21747 991.2724l0 0c0 -9.080078 6.69812 -16.440979 14.960632 -16.440979l0 0c3.9678345 0 7.7731323 1.7321777 10.578796 4.8154297c2.805664 3.083313 4.381836 7.2651367 4.381836 11.625549l0 0c0 9.080078 -6.69812 16.440918 -14.960632 16.440918l0 0c-8.262512 0 -14.960632 -7.36084 -14.960632 -16.440918z" fill-rule="evenodd"/></g></svg>