<svg xmlns="http://www.w3.org/2000/svg" xmlns:xlink="http://www.w3.org/1999/xlink" width="500" zoomAndPan="magnify" viewBox="0 0 375 374.999991" height="500" preserveAspectRatio="xMidYMid meet" version="1.0"><defs><g/><clipPath id="37544aaca2"><path d="M 22.6875 32 L 352.6875 32 L 352.6875 361.507812 L 22.6875 361.507812 Z M 22.6875 32 " clip-rule="nonzero"/></clipPath><clipPath id="d291f94c6b"><path d="M 134 13.511719 L 204 13.511719 L 204 121 L 134 121 Z M 134 13.511719 " clip-rule="nonzero"/></clipPath></defs><rect x="-37.5" width="450" fill="#ffffff" y="-37.499999" height="449.999989" fill-opacity="1"/><rect x="-37.5" width="450" fill="#ffffff" y="-37.499999" height="449.999989" fill-opacity="1"/><g clip-path="url(#37544aaca2)"><path fill="#f7b44b" d="M 339.285156 132.359375 C 330.988281 112.726562 319.097656 95.109375 303.980469 79.988281 C 288.859375 64.871094 271.246094 52.980469 251.609375 44.6875 C 236.34375 38.226562 220.34375 34.152344 203.867188 32.539062 C 204.085938 32.867188 204.269531 33.234375 204.488281 33.566406 C 208.195312 39.914062 211.28125 45.933594 213.738281 51.730469 C 282.402344 64.136719 334.621094 124.359375 334.621094 196.507812 C 334.621094 212.542969 332.054688 228.324219 326.988281 243.371094 C 325.816406 246.894531 324.492188 250.417969 323.027344 253.867188 C 318.730469 263.996094 313.265625 273.648438 306.804688 282.601562 C 305.8125 283.960938 304.898438 285.207031 303.941406 286.453125 C 296.234375 296.398438 287.28125 305.355469 277.375 313.023438 L 277.007812 313.316406 C 259.792969 326.53125 240.34375 335.59375 219.242188 340.21875 C 214.65625 341.210938 209.996094 342.015625 205.371094 342.566406 C 203.792969 342.75 202.179688 342.933594 200.488281 343.082031 C 200.453125 343.082031 200.378906 343.082031 200.34375 343.082031 L 199.976562 343.117188 C 195.902344 343.484375 191.71875 343.667969 187.5 343.667969 C 185.40625 343.667969 183.316406 343.632812 181.296875 343.558594 C 177.40625 343.410156 173.554688 343.082031 169.847656 342.640625 C 165.992188 342.199219 162.101562 341.539062 158.25 340.769531 C 158.140625 340.730469 157.992188 340.730469 157.882812 340.695312 C 153.257812 339.742188 148.597656 338.566406 144.046875 337.171875 C 141.40625 336.363281 138.761719 335.449219 136.230469 334.53125 C 114.835938 326.566406 95.238281 313.464844 79.605469 296.65625 C 71.75 288.179688 64.890625 278.785156 59.238281 268.765625 C 53.402344 258.417969 48.816406 247.371094 45.660156 235.957031 C 42.136719 223.1875 40.339844 209.9375 40.339844 196.542969 C 40.339844 140.210938 72.15625 91.183594 118.761719 66.449219 C 120.632812 59.070312 123.71875 51.21875 127.972656 42.851562 C 126.433594 43.4375 124.855469 44.097656 123.3125 44.722656 C 103.679688 53.015625 86.0625 64.90625 70.945312 80.027344 C 55.824219 95.144531 43.933594 112.761719 35.640625 132.394531 C 27.054688 152.726562 22.6875 174.304688 22.6875 196.542969 C 22.6875 211.515625 24.703125 226.34375 28.667969 240.65625 C 32.191406 253.425781 37.328125 265.792969 43.859375 277.425781 C 50.210938 288.65625 57.878906 299.152344 66.6875 308.65625 C 84.191406 327.484375 106.101562 342.164062 130.101562 351.082031 C 132.964844 352.144531 135.902344 353.136719 138.875 354.054688 C 144.046875 355.632812 149.296875 356.988281 154.542969 358.054688 L 154.875 358.128906 L 154.910156 358.128906 C 159.167969 358.972656 163.460938 359.667969 167.71875 360.183594 C 171.902344 360.695312 176.195312 361.027344 180.527344 361.210938 C 182.800781 361.320312 185.113281 361.355469 187.460938 361.355469 C 192.121094 361.355469 196.785156 361.171875 201.296875 360.769531 C 201.445312 360.769531 201.554688 360.769531 201.738281 360.734375 L 201.921875 360.734375 C 203.792969 360.585938 205.664062 360.367188 207.460938 360.144531 C 212.636719 359.523438 217.847656 358.640625 222.984375 357.503906 C 246.621094 352.292969 268.382812 342.164062 287.648438 327.410156 C 287.832031 327.300781 287.980469 327.152344 288.164062 327.007812 C 299.28125 318.417969 309.265625 308.4375 317.886719 297.316406 C 318.953125 295.921875 320.015625 294.527344 321.117188 293.023438 C 328.382812 283.003906 334.476562 272.144531 339.285156 260.839844 C 340.933594 256.949219 342.4375 252.984375 343.761719 249.058594 C 349.410156 232.179688 352.3125 214.527344 352.3125 196.582031 C 352.238281 174.269531 347.871094 152.652344 339.285156 132.359375 Z M 339.285156 132.359375 " fill-opacity="1" fill-rule="nonzero"/></g><path fill="#f7b44b" d="M 209.113281 359.777344 C 208.710938 359.777344 208.269531 359.742188 207.867188 359.703125 C 203.058594 359.007812 199.683594 354.53125 200.378906 349.722656 C 201.039062 345.136719 201.371094 340.4375 201.371094 335.742188 C 201.371094 334.417969 201.335938 333.246094 201.296875 332.109375 C 200.746094 316.585938 196.671875 301.867188 189.222656 288.363281 C 189.222656 288.328125 189.1875 288.328125 189.1875 288.289062 C 189.148438 288.214844 189.113281 288.179688 189.078125 288.105469 C 183.753906 278.492188 176.894531 269.902344 168.710938 262.527344 C 166.652344 260.691406 164.488281 258.894531 162.285156 257.242188 C 145.074219 244.214844 124.5625 237.316406 102.910156 237.316406 C 82.175781 237.316406 62.320312 243.703125 45.550781 255.773438 C 41.585938 258.601562 36.082031 257.71875 33.253906 253.757812 C 30.429688 249.792969 31.308594 244.289062 35.273438 241.460938 C 55.089844 227.222656 78.46875 219.699219 102.945312 219.699219 C 128.449219 219.699219 152.671875 227.8125 172.964844 243.1875 C 175.570312 245.167969 178.105469 247.261719 180.527344 249.425781 C 190.175781 258.125 198.289062 268.289062 204.5625 279.628906 C 204.636719 279.738281 204.671875 279.847656 204.746094 279.960938 C 213.519531 295.886719 218.289062 313.207031 218.949219 331.449219 C 218.984375 332.804688 219.023438 334.238281 219.023438 335.777344 C 219.023438 341.320312 218.617188 346.859375 217.847656 352.292969 C 217.1875 356.585938 213.445312 359.777344 209.113281 359.777344 Z M 189.148438 288.214844 C 189.1875 288.214844 189.1875 288.214844 189.148438 288.214844 C 189.1875 288.214844 189.1875 288.214844 189.148438 288.214844 Z M 189.148438 288.214844 " fill-opacity="1" fill-rule="nonzero"/><path fill="#f7b44b" d="M 172.820312 360.585938 C 172.160156 360.585938 171.5 360.511719 170.835938 360.367188 C 166.105469 359.265625 163.132812 354.53125 164.230469 349.796875 C 164.304688 349.503906 164.378906 349.210938 164.414062 348.914062 C 164.414062 348.878906 164.414062 348.878906 164.414062 348.84375 C 164.453125 348.695312 164.488281 348.511719 164.527344 348.363281 C 164.527344 348.328125 164.527344 348.328125 164.527344 348.292969 C 164.5625 348.109375 164.597656 347.925781 164.636719 347.742188 C 164.636719 347.703125 164.671875 347.632812 164.671875 347.59375 C 164.710938 347.410156 164.746094 347.226562 164.78125 347.007812 C 164.78125 346.96875 164.78125 346.933594 164.78125 346.933594 C 164.820312 346.714844 164.855469 346.492188 164.890625 346.273438 C 164.890625 346.199219 164.929688 346.164062 164.929688 346.089844 C 164.929688 346.089844 164.929688 346.054688 164.929688 346.054688 C 165.003906 345.574219 165.074219 345.097656 165.148438 344.621094 C 165.148438 344.621094 165.148438 344.585938 165.148438 344.585938 C 165.1875 344.328125 165.222656 344.109375 165.257812 343.851562 L 165.332031 343.300781 C 165.441406 342.566406 165.515625 341.796875 165.589844 340.953125 C 165.625 340.660156 165.625 340.363281 165.664062 340.070312 C 165.664062 340.070312 165.664062 340.035156 165.664062 340.035156 C 165.773438 338.601562 165.808594 337.136719 165.808594 335.632812 C 165.808594 318.308594 158.875 302.160156 146.324219 290.160156 C 134.578125 278.933594 119.167969 272.765625 102.945312 272.765625 C 102.578125 272.765625 102.175781 272.765625 101.808594 272.765625 C 101.699219 272.765625 101.585938 272.765625 101.476562 272.765625 C 101.402344 272.765625 101.332031 272.765625 101.257812 272.765625 C 100.488281 272.765625 99.644531 272.839844 98.796875 272.875 C 98.761719 272.875 98.726562 272.875 98.6875 272.875 C 98.542969 272.875 98.394531 272.875 98.285156 272.914062 C 98.175781 272.914062 98.066406 272.914062 97.992188 272.949219 C 97.953125 272.949219 97.882812 272.949219 97.808594 272.949219 C 97.660156 272.949219 97.515625 272.988281 97.367188 272.988281 C 97.292969 272.988281 97.21875 272.988281 97.148438 273.023438 C 97 273.023438 96.855469 273.058594 96.707031 273.058594 L 96.632812 273.058594 C 96.632812 273.058594 96.597656 273.058594 96.597656 273.058594 C 96.265625 273.097656 95.898438 273.132812 95.570312 273.171875 L 95.203125 273.207031 C 95.128906 273.207031 95.09375 273.207031 95.019531 273.242188 L 94.761719 273.28125 C 94.542969 273.316406 94.359375 273.316406 94.136719 273.355469 C 94.101562 273.355469 94.066406 273.355469 94.027344 273.390625 C 93.332031 273.5 92.742188 273.574219 92.191406 273.683594 C 92.15625 273.683594 92.121094 273.683594 92.121094 273.683594 C 91.789062 273.71875 91.460938 273.792969 91.164062 273.867188 L 90.613281 273.976562 C 90.542969 273.976562 90.46875 274.015625 90.394531 274.015625 C 90.175781 274.050781 89.917969 274.125 89.699219 274.160156 C 89.625 274.160156 89.550781 274.199219 89.515625 274.199219 C 89.183594 274.269531 88.851562 274.34375 88.488281 274.417969 C 87.972656 274.527344 87.457031 274.675781 86.980469 274.785156 C 86.761719 274.820312 86.578125 274.894531 86.359375 274.96875 C 86.285156 275.003906 86.210938 275.003906 86.136719 275.042969 C 85.917969 275.078125 85.734375 275.152344 85.515625 275.226562 C 85.257812 275.296875 85 275.371094 84.78125 275.445312 C 84.707031 275.480469 84.632812 275.480469 84.558594 275.519531 C 84.375 275.554688 84.191406 275.628906 84.046875 275.664062 C 84.007812 275.664062 84.007812 275.664062 83.972656 275.703125 C 83.753906 275.777344 83.53125 275.847656 83.273438 275.921875 C 83.273438 275.921875 83.203125 275.960938 83.203125 275.960938 C 82.980469 276.03125 82.761719 276.105469 82.542969 276.179688 L 82.394531 276.214844 C 81.953125 276.363281 81.476562 276.546875 81.035156 276.691406 C 80.230469 276.988281 79.421875 277.316406 78.613281 277.683594 C 78.542969 277.71875 78.46875 277.757812 78.394531 277.757812 C 78.320312 277.792969 78.246094 277.832031 78.175781 277.867188 C 78.101562 277.902344 78.027344 277.941406 77.953125 277.976562 C 77.367188 278.234375 76.707031 278.527344 76.046875 278.859375 C 76.007812 278.894531 75.9375 278.894531 75.898438 278.933594 L 75.789062 278.96875 C 75.753906 279.003906 75.679688 279.042969 75.640625 279.042969 C 75.3125 279.1875 74.980469 279.371094 74.652344 279.554688 C 74.285156 279.738281 73.992188 279.886719 73.660156 280.070312 L 73.585938 280.105469 C 73.476562 280.179688 73.367188 280.214844 73.257812 280.289062 C 73.074219 280.363281 72.925781 280.472656 72.742188 280.582031 C 72.667969 280.621094 72.597656 280.65625 72.558594 280.691406 C 72.449219 280.730469 72.375 280.804688 72.300781 280.839844 C 72.265625 280.875 72.230469 280.875 72.191406 280.914062 C 71.496094 281.316406 70.722656 281.757812 69.992188 282.234375 C 69.953125 282.234375 69.953125 282.269531 69.917969 282.269531 C 69.550781 282.492188 69.183594 282.710938 68.851562 282.96875 C 68.523438 283.1875 68.191406 283.410156 67.863281 283.628906 C 67.824219 283.664062 67.789062 283.664062 67.789062 283.703125 C 67.714844 283.777344 67.640625 283.8125 67.566406 283.847656 C 67.238281 284.070312 66.945312 284.289062 66.613281 284.511719 C 65.808594 285.058594 65.109375 285.609375 64.449219 286.125 C 63.789062 286.636719 63.089844 287.1875 62.320312 287.847656 C 58.613281 291.003906 53.035156 290.527344 49.878906 286.820312 C 46.722656 283.117188 47.199219 277.539062 50.90625 274.382812 C 51.863281 273.574219 52.742188 272.839844 53.585938 272.179688 C 54.429688 271.519531 55.347656 270.820312 56.339844 270.125 C 56.742188 269.832031 57.183594 269.535156 57.625 269.242188 C 57.734375 269.171875 57.84375 269.097656 57.953125 269.023438 C 58.355469 268.730469 58.796875 268.472656 59.238281 268.179688 C 59.714844 267.847656 60.230469 267.554688 60.742188 267.226562 C 61.695312 266.636719 62.652344 266.050781 63.566406 265.535156 C 63.75 265.425781 63.972656 265.316406 64.15625 265.207031 C 64.449219 265.023438 64.777344 264.875 65.074219 264.691406 C 65.144531 264.65625 65.257812 264.582031 65.328125 264.546875 L 65.367188 264.507812 C 65.402344 264.507812 65.402344 264.472656 65.441406 264.472656 C 65.878906 264.253906 66.320312 263.996094 66.761719 263.773438 C 67.164062 263.589844 67.605469 263.371094 68.007812 263.152344 C 68.191406 263.078125 68.375 262.96875 68.523438 262.894531 C 69.367188 262.492188 70.175781 262.125 70.980469 261.792969 C 71.203125 261.683594 71.496094 261.574219 71.789062 261.425781 C 72.851562 260.984375 73.878906 260.546875 74.90625 260.179688 C 75.457031 259.996094 76.007812 259.773438 76.523438 259.589844 L 76.707031 259.519531 C 76.742188 259.519531 76.742188 259.480469 76.78125 259.480469 C 77.109375 259.371094 77.441406 259.261719 77.769531 259.152344 C 78.027344 259.078125 78.320312 258.96875 78.578125 258.894531 C 78.90625 258.785156 79.203125 258.710938 79.53125 258.601562 C 79.898438 258.492188 80.265625 258.378906 80.632812 258.269531 C 80.925781 258.195312 81.257812 258.085938 81.585938 258.015625 C 81.917969 257.902344 82.246094 257.832031 82.613281 257.71875 C 83.238281 257.574219 83.824219 257.425781 84.449219 257.28125 C 84.484375 257.28125 84.484375 257.28125 84.523438 257.242188 C 84.890625 257.167969 85.257812 257.058594 85.625 256.984375 C 85.699219 256.984375 85.769531 256.949219 85.808594 256.949219 C 86.175781 256.875 86.578125 256.800781 86.945312 256.691406 C 87.019531 256.691406 87.054688 256.65625 87.128906 256.65625 L 87.203125 256.65625 C 87.203125 256.65625 87.238281 256.65625 87.238281 256.65625 L 87.824219 256.546875 C 88.265625 256.472656 88.742188 256.363281 89.183594 256.289062 C 89.917969 256.140625 90.6875 256.03125 91.570312 255.921875 C 91.9375 255.886719 92.304688 255.8125 92.671875 255.773438 L 92.707031 255.773438 C 92.855469 255.738281 93 255.738281 93.148438 255.703125 L 93.476562 255.664062 C 93.515625 255.664062 93.550781 255.664062 93.550781 255.664062 C 94.027344 255.628906 94.503906 255.554688 94.980469 255.519531 L 95.019531 255.519531 C 95.238281 255.480469 95.460938 255.480469 95.679688 255.445312 C 95.972656 255.40625 96.265625 255.371094 96.597656 255.371094 C 96.707031 255.371094 96.816406 255.335938 96.925781 255.335938 C 97.21875 255.296875 97.476562 255.296875 97.769531 255.261719 C 98.835938 255.1875 99.863281 255.152344 100.816406 255.113281 C 101.074219 255.113281 101.332031 255.113281 101.585938 255.113281 C 102.066406 255.113281 102.542969 255.113281 103.019531 255.113281 C 123.789062 255.113281 143.535156 263.042969 158.582031 277.390625 C 166.398438 284.839844 172.527344 293.609375 176.820312 303.410156 C 181.261719 313.613281 183.535156 324.4375 183.535156 335.59375 C 183.535156 337.503906 183.460938 339.410156 183.351562 341.246094 C 183.316406 341.613281 183.316406 341.980469 183.277344 342.308594 C 183.203125 343.410156 183.09375 344.476562 182.949219 345.464844 L 182.875 345.941406 C 182.875 345.980469 182.875 346.015625 182.875 346.054688 C 182.839844 346.382812 182.800781 346.75 182.726562 347.082031 C 182.65625 347.703125 182.542969 348.328125 182.433594 348.953125 C 182.433594 348.988281 182.433594 349.027344 182.433594 349.0625 C 182.433594 349.097656 182.433594 349.136719 182.433594 349.171875 C 182.398438 349.503906 182.324219 349.832031 182.25 350.164062 C 182.214844 350.421875 182.140625 350.675781 182.105469 350.933594 C 182.03125 351.265625 181.992188 351.558594 181.921875 351.886719 C 181.882812 352.144531 181.808594 352.402344 181.773438 352.660156 C 181.699219 353.027344 181.625 353.355469 181.554688 353.722656 C 180.453125 357.832031 176.820312 360.585938 172.820312 360.585938 Z M 164.964844 345.90625 Z M 164.964844 345.871094 Z M 165.003906 345.871094 Z M 165.003906 345.871094 " fill-opacity="1" fill-rule="nonzero"/><path fill="#f7b44b" d="M 137.992188 353.246094 C 137.257812 353.246094 136.523438 353.136719 135.753906 352.953125 C 131.054688 351.742188 128.230469 346.898438 129.441406 342.199219 C 129.480469 342.015625 129.515625 341.832031 129.589844 341.648438 C 129.589844 341.574219 129.625 341.539062 129.625 341.464844 C 129.625 341.429688 129.625 341.390625 129.660156 341.355469 C 129.699219 341.171875 129.734375 340.988281 129.773438 340.804688 C 129.773438 340.730469 129.808594 340.621094 129.808594 340.546875 C 129.84375 340.402344 129.84375 340.253906 129.882812 340.109375 C 129.882812 340.035156 129.917969 339.960938 129.917969 339.851562 C 129.957031 339.632812 129.992188 339.375 130.027344 339.082031 C 130.066406 338.785156 130.101562 338.566406 130.101562 338.308594 C 130.101562 338.273438 130.101562 338.199219 130.101562 338.164062 C 130.140625 337.941406 130.140625 337.757812 130.140625 337.539062 C 130.140625 337.429688 130.140625 337.320312 130.175781 337.207031 C 130.175781 337.0625 130.175781 336.914062 130.210938 336.769531 L 130.210938 336.363281 C 130.210938 336.144531 130.210938 335.925781 130.210938 335.667969 C 130.210938 320.621094 117.957031 308.363281 102.910156 308.363281 C 102.285156 308.363281 101.660156 308.402344 101.074219 308.4375 C 100.855469 308.4375 100.632812 308.472656 100.414062 308.472656 C 100.339844 308.472656 100.265625 308.472656 100.191406 308.511719 C 100.046875 308.511719 99.863281 308.546875 99.714844 308.546875 C 98.503906 308.695312 97.292969 308.914062 96.15625 309.207031 C 96.082031 309.207031 96.046875 309.246094 95.972656 309.246094 L 95.898438 309.28125 C 95.824219 309.316406 95.753906 309.316406 95.679688 309.355469 C 95.570312 309.390625 95.460938 309.390625 95.386719 309.429688 C 95.347656 309.429688 95.3125 309.429688 95.3125 309.464844 C 95.054688 309.539062 94.835938 309.613281 94.578125 309.683594 L 94.101562 309.832031 C 93.953125 309.867188 93.84375 309.941406 93.699219 309.980469 C 93.550781 310.050781 93.402344 310.089844 93.257812 310.125 C 93.183594 310.164062 93.074219 310.199219 93 310.234375 C 92.890625 310.273438 92.742188 310.34375 92.632812 310.382812 C 92.082031 310.601562 91.605469 310.824219 91.164062 311.042969 C 91.128906 311.042969 91.09375 311.078125 91.054688 311.078125 L 90.910156 311.152344 C 90.835938 311.191406 90.796875 311.226562 90.726562 311.261719 C 90.066406 311.59375 89.402344 311.960938 88.707031 312.363281 L 88.523438 312.472656 C 88.449219 312.511719 88.414062 312.546875 88.339844 312.585938 L 87.898438 312.878906 C 87.824219 312.914062 87.789062 312.953125 87.753906 312.988281 C 87.273438 313.316406 86.796875 313.648438 86.320312 314.015625 C 86.285156 314.050781 86.246094 314.089844 86.210938 314.125 C 86.136719 314.199219 86.027344 314.273438 85.953125 314.347656 C 85.917969 314.382812 85.878906 314.382812 85.84375 314.417969 C 85.699219 314.53125 85.550781 314.675781 85.367188 314.785156 C 85.332031 314.824219 85.292969 314.859375 85.21875 314.894531 C 85.148438 314.933594 85.109375 315.007812 85.035156 315.042969 L 85 315.078125 C 84.78125 315.261719 84.558594 315.445312 84.339844 315.628906 C 80.449219 318.566406 74.90625 317.796875 71.972656 313.90625 C 69.183594 310.234375 69.734375 305.097656 73.074219 302.050781 C 73.148438 301.980469 73.183594 301.941406 73.257812 301.867188 L 73.292969 301.832031 C 73.550781 301.613281 73.769531 301.429688 74.027344 301.207031 C 74.246094 301.023438 74.46875 300.839844 74.6875 300.65625 C 74.980469 300.4375 75.273438 300.179688 75.570312 299.960938 C 76.339844 299.371094 77.109375 298.824219 77.878906 298.273438 C 78.0625 298.160156 78.246094 298.050781 78.429688 297.90625 L 78.542969 297.832031 C 78.578125 297.796875 78.613281 297.757812 78.6875 297.757812 L 78.871094 297.648438 C 79.089844 297.5 79.273438 297.390625 79.496094 297.246094 L 79.570312 297.207031 C 80.667969 296.546875 81.769531 295.921875 82.871094 295.371094 C 83.089844 295.261719 83.3125 295.152344 83.53125 295.042969 C 84.304688 294.675781 85.074219 294.308594 85.953125 293.941406 C 85.953125 293.941406 85.992188 293.941406 85.992188 293.941406 C 86.210938 293.867188 86.429688 293.757812 86.652344 293.683594 C 86.761719 293.648438 86.835938 293.613281 86.945312 293.574219 C 87.238281 293.464844 87.53125 293.355469 87.824219 293.246094 C 88.046875 293.171875 88.304688 293.0625 88.597656 292.988281 C 88.632812 292.988281 88.667969 292.949219 88.667969 292.949219 L 89.21875 292.765625 C 89.625 292.621094 90.0625 292.511719 90.542969 292.363281 C 90.6875 292.328125 90.871094 292.289062 91.019531 292.21875 C 91.128906 292.179688 91.203125 292.144531 91.3125 292.144531 C 91.53125 292.070312 91.753906 292.035156 91.972656 291.960938 C 93.882812 291.484375 95.863281 291.117188 97.808594 290.894531 C 98.066406 290.859375 98.359375 290.824219 98.652344 290.824219 C 98.761719 290.824219 98.835938 290.785156 98.945312 290.785156 C 99.277344 290.75 99.605469 290.710938 99.972656 290.710938 C 100.964844 290.640625 101.992188 290.601562 103.054688 290.601562 C 127.828125 290.601562 148.011719 310.75 148.011719 335.558594 C 148.011719 335.960938 148.011719 336.328125 148.011719 336.730469 C 148.011719 336.730469 148.011719 336.769531 148.011719 336.769531 L 148.011719 337.171875 C 148.011719 337.539062 147.972656 337.90625 147.972656 338.199219 C 147.972656 338.273438 147.972656 338.308594 147.972656 338.382812 C 147.9375 338.789062 147.902344 339.226562 147.863281 339.632812 C 147.828125 340.109375 147.753906 340.585938 147.71875 341.0625 C 147.644531 341.578125 147.570312 342.089844 147.496094 342.605469 C 147.425781 343.007812 147.386719 343.375 147.3125 343.777344 C 147.242188 344.183594 147.167969 344.585938 147.09375 344.914062 C 147.09375 344.953125 147.058594 345.027344 147.058594 345.0625 C 147.058594 345.097656 147.019531 345.136719 147.019531 345.210938 C 146.910156 345.648438 146.835938 346.089844 146.691406 346.53125 C 145.480469 350.605469 141.882812 353.246094 137.992188 353.246094 Z M 96.632812 309.0625 C 96.597656 309.0625 96.597656 309.0625 96.632812 309.0625 C 96.597656 309.0625 96.597656 309.0625 96.632812 309.0625 Z M 99.53125 308.546875 Z M 99.570312 308.546875 Z M 102.503906 308.035156 Z M 102.503906 308.035156 Z M 102.542969 308.035156 C 102.542969 308.035156 102.503906 308.035156 102.542969 308.035156 C 102.503906 308.035156 102.542969 308.035156 102.542969 308.035156 Z M 89.992188 301.976562 Z M 89.992188 301.976562 " fill-opacity="1" fill-rule="nonzero"/><path fill="#f7b44b" d="M 308.53125 303.628906 C 306.292969 303.628906 304.054688 302.785156 302.363281 301.097656 C 302.179688 300.914062 301.960938 300.730469 301.777344 300.546875 C 301.742188 300.511719 301.703125 300.472656 301.667969 300.4375 C 301.484375 300.253906 301.300781 300.105469 301.117188 299.921875 C 301.042969 299.886719 301.007812 299.8125 300.933594 299.777344 C 300.75 299.59375 300.53125 299.410156 300.347656 299.226562 C 300.347656 299.226562 300.308594 299.1875 300.308594 299.1875 C 300.089844 299.003906 299.90625 298.824219 299.6875 298.640625 C 299.648438 298.601562 299.613281 298.566406 299.574219 298.527344 C 299.28125 298.273438 299.023438 298.050781 298.730469 297.792969 C 298.730469 297.792969 298.695312 297.757812 298.695312 297.757812 C 298.402344 297.5 298.109375 297.28125 297.8125 297.023438 C 297.777344 296.988281 297.742188 296.949219 297.703125 296.949219 C 297.519531 296.765625 297.300781 296.621094 297.117188 296.472656 C 297.082031 296.4375 297.082031 296.4375 297.042969 296.398438 C 295.796875 295.410156 294.511719 294.382812 293.152344 293.425781 C 292.859375 293.207031 292.566406 293.023438 292.273438 292.804688 C 291.832031 292.511719 291.429688 292.214844 290.988281 291.921875 C 290.585938 291.628906 290.144531 291.371094 289.703125 291.078125 C 289.152344 290.75 288.640625 290.382812 288.089844 290.089844 C 288.050781 290.050781 288.015625 290.050781 287.980469 290.015625 C 287.796875 289.90625 287.613281 289.792969 287.429688 289.683594 C 287.429688 289.683594 287.390625 289.683594 287.390625 289.648438 C 284.859375 288.144531 282.253906 286.75 279.574219 285.539062 C 279.539062 285.5 279.464844 285.5 279.429688 285.464844 C 279.207031 285.355469 279.023438 285.28125 278.804688 285.171875 C 278.730469 285.132812 278.695312 285.132812 278.621094 285.097656 C 278.621094 285.097656 278.621094 285.097656 278.585938 285.097656 L 278.363281 284.988281 C 278.21875 284.914062 278.035156 284.839844 277.851562 284.765625 C 277.777344 284.730469 277.703125 284.695312 277.667969 284.695312 C 277.445312 284.582031 277.226562 284.511719 277.007812 284.398438 C 276.933594 284.363281 276.894531 284.363281 276.824219 284.328125 C 276.566406 284.214844 276.308594 284.105469 276.050781 283.996094 L 276.015625 283.960938 C 275.429688 283.703125 274.804688 283.484375 274.179688 283.261719 C 273.886719 283.152344 273.554688 283.042969 273.261719 282.933594 C 273.152344 282.894531 273.078125 282.859375 272.96875 282.820312 C 272.894531 282.785156 272.785156 282.75 272.710938 282.710938 L 272.492188 282.636719 C 272.160156 282.527344 271.832031 282.417969 271.5 282.308594 C 271.464844 282.308594 271.464844 282.308594 271.429688 282.269531 C 271.171875 282.199219 270.914062 282.089844 270.621094 282.015625 C 270.582031 282.015625 270.546875 282.015625 270.546875 281.976562 C 269.960938 281.792969 269.335938 281.609375 268.75 281.425781 C 267.28125 280.988281 265.777344 280.621094 264.308594 280.289062 C 263.832031 280.179688 263.390625 280.070312 262.988281 279.996094 L 262.214844 279.8125 C 261.003906 279.554688 259.722656 279.335938 258.398438 279.117188 L 257.738281 279.003906 C 256.75 278.859375 255.757812 278.75 254.765625 278.636719 L 254.695312 278.636719 C 254.472656 278.601562 254.253906 278.601562 254.03125 278.566406 C 253.996094 278.566406 253.996094 278.566406 253.960938 278.566406 C 252.089844 278.382812 250.179688 278.269531 248.308594 278.199219 C 248.015625 278.199219 247.792969 278.199219 247.539062 278.199219 C 247.5 278.199219 247.464844 278.199219 247.464844 278.199219 C 246.988281 278.199219 246.511719 278.199219 246.03125 278.199219 C 230.253906 278.199219 214.949219 282.75 201.773438 291.410156 C 199.71875 292.765625 197.1875 293.207031 194.765625 292.582031 C 192.378906 291.996094 190.324219 290.417969 189.148438 288.214844 C 189.113281 288.144531 189.078125 288.105469 189.039062 288.03125 C 183.71875 278.417969 176.855469 269.832031 168.671875 262.453125 C 166.617188 260.621094 164.453125 258.820312 162.25 257.167969 C 160.011719 255.480469 158.726562 252.839844 158.765625 250.050781 C 158.800781 247.261719 160.160156 244.617188 162.433594 243.003906 C 186.875 225.390625 215.792969 216.066406 245.996094 216.066406 C 262.988281 216.066406 279.613281 219.003906 295.390625 224.839844 C 310.660156 230.453125 324.789062 238.601562 337.339844 249.058594 C 341.082031 252.179688 341.59375 257.71875 338.476562 261.464844 C 335.355469 265.207031 329.816406 265.71875 326.070312 262.601562 C 303.648438 243.957031 275.207031 233.71875 245.996094 233.71875 C 223.351562 233.71875 201.519531 239.703125 182.289062 251.078125 C 189.003906 257.351562 194.910156 264.398438 199.941406 272.03125 C 214.070312 264.507812 229.847656 260.582031 245.996094 260.582031 C 246.621094 260.582031 247.207031 260.582031 247.832031 260.621094 C 248.160156 260.621094 248.492188 260.621094 248.820312 260.65625 C 251.058594 260.730469 253.371094 260.875 255.648438 261.097656 C 255.941406 261.132812 256.234375 261.167969 256.527344 261.167969 L 256.601562 261.167969 C 257.851562 261.316406 259.0625 261.464844 260.308594 261.648438 L 261.042969 261.757812 C 262.695312 262.015625 264.273438 262.308594 265.8125 262.601562 L 266.695312 262.785156 C 267.246094 262.894531 267.792969 263.042969 268.34375 263.152344 C 270.105469 263.554688 271.941406 264.03125 273.738281 264.546875 C 273.738281 264.546875 273.777344 264.546875 273.777344 264.546875 C 274.472656 264.765625 275.207031 264.988281 275.90625 265.207031 C 276.308594 265.316406 276.710938 265.464844 277.078125 265.609375 C 277.519531 265.757812 277.960938 265.902344 278.363281 266.050781 C 278.363281 266.050781 278.402344 266.050781 278.402344 266.085938 L 278.585938 266.160156 C 278.769531 266.234375 278.914062 266.269531 279.097656 266.34375 C 279.539062 266.492188 280.015625 266.675781 280.457031 266.820312 C 281.191406 267.078125 281.886719 267.371094 282.621094 267.664062 L 282.695312 267.703125 C 283.023438 267.847656 283.390625 267.996094 283.722656 268.105469 C 284.089844 268.253906 284.457031 268.398438 284.824219 268.582031 C 285.042969 268.691406 285.300781 268.765625 285.519531 268.875 L 285.667969 268.949219 C 285.703125 268.988281 285.777344 268.988281 285.8125 269.023438 C 286.21875 269.207031 286.621094 269.390625 287.023438 269.574219 C 290.21875 271.042969 293.410156 272.691406 296.457031 274.527344 C 296.75 274.710938 297.042969 274.859375 297.300781 275.042969 C 297.886719 275.410156 298.511719 275.777344 299.246094 276.253906 C 299.757812 276.582031 300.308594 276.949219 300.824219 277.28125 C 301.335938 277.609375 301.851562 277.976562 302.363281 278.34375 C 302.695312 278.566406 303.027344 278.820312 303.355469 279.042969 C 303.355469 279.042969 303.390625 279.078125 303.429688 279.078125 C 305.042969 280.253906 306.660156 281.464844 308.125 282.675781 C 308.457031 282.933594 308.785156 283.1875 309.082031 283.484375 C 309.449219 283.777344 309.816406 284.105469 310.144531 284.398438 C 310.511719 284.695312 310.878906 285.023438 311.210938 285.355469 C 311.503906 285.609375 311.796875 285.867188 312.089844 286.160156 C 312.382812 286.417969 312.640625 286.675781 312.933594 286.933594 C 313.226562 287.1875 313.519531 287.445312 313.777344 287.738281 C 314.070312 287.996094 314.363281 288.289062 314.660156 288.582031 C 318.144531 291.996094 318.183594 297.574219 314.769531 301.0625 C 313.082031 302.75 310.804688 303.628906 308.53125 303.628906 Z M 189.148438 288.144531 C 189.148438 288.179688 189.1875 288.179688 189.1875 288.214844 C 189.148438 288.179688 189.148438 288.179688 189.148438 288.144531 Z M 189.148438 288.144531 " fill-opacity="1" fill-rule="nonzero"/><path fill="#f7b44b" d="M 210.105469 340.511719 C 209.222656 340.511719 208.308594 340.363281 207.425781 340.109375 C 203.867188 338.96875 201.40625 335.742188 201.296875 332.035156 C 200.746094 316.546875 196.671875 301.832031 189.222656 288.289062 C 186.984375 284.253906 188.269531 279.1875 192.121094 276.65625 C 208.195312 266.125 226.839844 260.546875 246.070312 260.546875 C 246.691406 260.546875 247.28125 260.546875 247.902344 260.582031 C 248.234375 260.582031 248.566406 260.582031 248.894531 260.621094 C 251.132812 260.691406 253.445312 260.839844 255.722656 261.058594 C 256.015625 261.097656 256.308594 261.132812 256.601562 261.132812 L 256.675781 261.132812 C 257.921875 261.28125 259.132812 261.425781 260.382812 261.609375 L 261.117188 261.71875 C 262.765625 261.976562 264.34375 262.269531 265.886719 262.5625 L 266.765625 262.746094 C 267.316406 262.859375 267.867188 263.003906 268.417969 263.113281 C 270.179688 263.519531 272.015625 263.996094 273.8125 264.507812 C 273.8125 264.507812 273.851562 264.507812 273.851562 264.507812 C 274.582031 264.730469 275.28125 264.949219 276.015625 265.171875 L 276.308594 265.242188 C 276.601562 265.316406 276.894531 265.425781 277.152344 265.535156 C 277.554688 265.683594 277.996094 265.832031 278.4375 265.976562 C 278.4375 265.976562 278.472656 265.976562 278.472656 266.015625 L 278.65625 266.085938 C 278.839844 266.160156 278.988281 266.199219 279.171875 266.269531 C 279.613281 266.417969 280.089844 266.601562 280.527344 266.746094 C 281.261719 267.003906 281.960938 267.296875 282.695312 267.59375 C 283.0625 267.738281 283.429688 267.886719 283.796875 268.03125 C 284.164062 268.179688 284.527344 268.324219 284.859375 268.472656 C 285.117188 268.582031 285.375 268.691406 285.59375 268.804688 L 285.742188 268.875 C 285.777344 268.914062 285.851562 268.914062 285.886719 268.949219 C 285.921875 268.949219 285.921875 268.988281 285.960938 268.988281 C 286.328125 269.132812 286.695312 269.316406 287.0625 269.464844 C 290.289062 270.929688 293.445312 272.621094 296.53125 274.453125 C 296.824219 274.636719 297.117188 274.785156 297.375 274.96875 C 297.960938 275.335938 298.585938 275.703125 299.320312 276.179688 C 299.871094 276.511719 300.382812 276.875 300.933594 277.242188 C 301.449219 277.574219 301.960938 277.941406 302.476562 278.308594 C 302.804688 278.527344 303.136719 278.785156 303.464844 279.003906 C 303.464844 279.003906 303.503906 279.042969 303.539062 279.042969 C 305.152344 280.214844 306.769531 281.425781 308.238281 282.636719 C 308.53125 282.894531 308.859375 283.152344 309.152344 283.410156 C 309.519531 283.738281 309.925781 284.03125 310.292969 284.363281 C 310.660156 284.695312 311.027344 284.988281 311.390625 285.316406 C 311.6875 285.574219 311.980469 285.832031 312.238281 286.089844 C 312.53125 286.34375 312.824219 286.601562 313.117188 286.894531 C 313.410156 287.152344 313.667969 287.410156 313.960938 287.667969 C 314.253906 287.960938 314.546875 288.214844 314.84375 288.511719 C 318.328125 291.921875 318.367188 297.5 314.953125 300.988281 C 311.539062 304.472656 305.960938 304.511719 302.476562 301.097656 C 302.253906 300.878906 302.035156 300.695312 301.8125 300.472656 C 301.59375 300.253906 301.375 300.070312 301.152344 299.851562 C 301.117188 299.8125 301.082031 299.777344 301.042969 299.738281 C 300.859375 299.554688 300.640625 299.371094 300.457031 299.1875 C 300.457031 299.1875 300.417969 299.152344 300.417969 299.152344 C 300.199219 298.933594 299.980469 298.75 299.757812 298.566406 C 299.757812 298.566406 299.722656 298.527344 299.722656 298.527344 C 299.429688 298.273438 299.171875 298.050781 298.878906 297.792969 C 298.878906 297.792969 298.839844 297.757812 298.839844 297.757812 C 298.585938 297.539062 298.292969 297.28125 298.035156 297.0625 C 297.996094 297.023438 297.960938 297.023438 297.925781 296.988281 C 297.703125 296.804688 297.484375 296.621094 297.261719 296.4375 C 297.226562 296.398438 297.226562 296.398438 297.191406 296.363281 C 295.941406 295.371094 294.65625 294.34375 293.300781 293.390625 C 293.007812 293.171875 292.714844 292.988281 292.417969 292.765625 C 292.015625 292.472656 291.613281 292.179688 291.171875 291.921875 C 291.136719 291.886719 291.097656 291.886719 291.0625 291.851562 C 290.65625 291.59375 290.289062 291.335938 289.886719 291.078125 C 289.851562 291.078125 289.851562 291.042969 289.8125 291.042969 C 289.300781 290.710938 288.75 290.382812 288.234375 290.050781 C 288.199219 290.015625 288.164062 290.015625 288.125 289.976562 C 287.941406 289.867188 287.757812 289.757812 287.574219 289.648438 C 287.574219 289.648438 287.539062 289.648438 287.539062 289.609375 C 285.007812 288.105469 282.402344 286.710938 279.722656 285.5 C 279.683594 285.5 279.683594 285.464844 279.648438 285.464844 C 279.390625 285.355469 279.132812 285.246094 278.878906 285.132812 C 278.839844 285.132812 278.804688 285.097656 278.769531 285.097656 C 278.769531 285.097656 278.730469 285.097656 278.730469 285.097656 L 278.511719 284.988281 C 278.363281 284.914062 278.179688 284.839844 277.996094 284.765625 C 277.960938 284.765625 277.921875 284.730469 277.886719 284.730469 C 277.59375 284.621094 277.300781 284.472656 277.007812 284.363281 C 276.710938 284.253906 276.417969 284.105469 276.089844 283.996094 C 275.5 283.738281 274.878906 283.519531 274.253906 283.300781 C 273.960938 283.1875 273.628906 283.078125 273.335938 282.96875 C 273.226562 282.933594 273.152344 282.894531 273.042969 282.859375 C 272.96875 282.820312 272.859375 282.785156 272.785156 282.75 L 272.566406 282.675781 C 272.234375 282.566406 271.90625 282.457031 271.574219 282.34375 C 271.316406 282.273438 271.0625 282.199219 270.839844 282.089844 L 270.582031 282.015625 C 270.035156 281.832031 269.410156 281.648438 268.824219 281.464844 C 267.355469 281.023438 265.851562 280.65625 264.382812 280.289062 C 263.90625 280.179688 263.464844 280.070312 263.0625 279.996094 L 262.289062 279.8125 C 261.078125 279.554688 259.792969 279.335938 258.472656 279.117188 L 257.8125 279.003906 C 256.820312 278.859375 255.832031 278.75 254.839844 278.636719 L 254.765625 278.636719 C 254.546875 278.601562 254.328125 278.601562 254.105469 278.566406 C 254.070312 278.566406 254.070312 278.566406 254.03125 278.566406 C 252.160156 278.382812 250.253906 278.269531 248.382812 278.199219 C 248.085938 278.199219 247.867188 278.199219 247.609375 278.199219 C 247.574219 278.199219 247.539062 278.199219 247.539062 278.199219 C 247.058594 278.199219 246.582031 278.199219 246.105469 278.199219 C 232.96875 278.199219 220.125 281.355469 208.601562 287.445312 C 212.453125 295.851562 215.242188 304.585938 217.003906 313.574219 C 225.554688 308.070312 235.609375 305.0625 246.144531 305.0625 C 246.804688 305.0625 247.5 305.0625 248.234375 305.097656 C 248.234375 305.097656 248.234375 305.097656 248.269531 305.097656 C 248.382812 305.097656 248.492188 305.097656 248.601562 305.097656 C 248.710938 305.097656 248.785156 305.097656 248.894531 305.097656 C 249.226562 305.097656 249.519531 305.132812 249.847656 305.171875 C 250.214844 305.207031 250.546875 305.207031 250.914062 305.246094 L 251.390625 305.28125 C 251.757812 305.316406 252.125 305.355469 252.453125 305.390625 C 252.859375 305.429688 253.261719 305.5 253.667969 305.539062 C 253.996094 305.574219 254.289062 305.648438 254.621094 305.683594 C 255.464844 305.832031 256.308594 305.980469 257.117188 306.125 C 257.261719 306.164062 257.445312 306.199219 257.667969 306.234375 C 258.253906 306.347656 258.839844 306.492188 259.464844 306.675781 L 259.5 306.675781 C 259.683594 306.710938 259.867188 306.75 260.050781 306.824219 C 260.382812 306.894531 260.710938 307.007812 261.003906 307.078125 C 261.703125 307.261719 262.4375 307.519531 263.171875 307.742188 C 263.539062 307.851562 263.941406 307.996094 264.34375 308.144531 L 264.492188 308.21875 C 264.75 308.328125 265.007812 308.402344 265.300781 308.511719 C 265.628906 308.621094 265.921875 308.769531 266.253906 308.878906 C 266.4375 308.953125 266.621094 309.023438 266.804688 309.097656 C 267.757812 309.5 268.710938 309.90625 269.628906 310.382812 L 269.667969 310.417969 C 269.8125 310.492188 269.921875 310.566406 270.070312 310.601562 C 270.21875 310.675781 270.363281 310.75 270.511719 310.824219 C 270.765625 310.96875 271.023438 311.078125 271.28125 311.226562 C 272.457031 311.851562 273.628906 312.511719 274.730469 313.207031 C 274.914062 313.320312 275.097656 313.464844 275.316406 313.574219 L 275.539062 313.722656 C 275.796875 313.90625 276.050781 314.050781 276.308594 314.234375 C 276.382812 314.273438 276.457031 314.347656 276.527344 314.382812 C 276.601562 314.417969 276.640625 314.457031 276.710938 314.492188 C 276.96875 314.675781 277.191406 314.824219 277.445312 315.007812 C 277.777344 315.226562 278.070312 315.445312 278.363281 315.667969 C 278.65625 315.886719 278.914062 316.070312 279.171875 316.289062 C 279.28125 316.363281 279.355469 316.4375 279.464844 316.511719 C 279.648438 316.65625 279.832031 316.804688 280.015625 316.953125 C 280.234375 317.136719 280.492188 317.320312 280.710938 317.503906 C 281.042969 317.757812 281.375 318.050781 281.703125 318.347656 C 285.335938 321.574219 285.667969 327.152344 282.402344 330.785156 C 279.171875 334.421875 273.59375 334.75 269.960938 331.484375 C 269.8125 331.335938 269.667969 331.226562 269.519531 331.082031 C 269.484375 331.082031 269.484375 331.042969 269.445312 331.042969 C 269.300781 330.898438 269.117188 330.785156 268.96875 330.640625 C 268.933594 330.601562 268.859375 330.566406 268.824219 330.53125 C 268.785156 330.492188 268.75 330.492188 268.710938 330.457031 C 268.640625 330.417969 268.566406 330.347656 268.492188 330.308594 L 268.382812 330.238281 C 268.382812 330.238281 268.34375 330.199219 268.34375 330.199219 C 268.199219 330.089844 268.015625 329.941406 267.867188 329.832031 C 267.867188 329.832031 267.832031 329.796875 267.832031 329.796875 C 267.648438 329.648438 267.464844 329.539062 267.28125 329.390625 C 267.246094 329.390625 267.246094 329.355469 267.207031 329.355469 C 267.023438 329.207031 266.804688 329.0625 266.621094 328.953125 C 266.546875 328.878906 266.4375 328.84375 266.363281 328.769531 C 266.214844 328.660156 266.105469 328.585938 265.960938 328.511719 L 265.738281 328.363281 C 265.628906 328.292969 265.519531 328.21875 265.410156 328.144531 C 264.640625 327.667969 263.867188 327.226562 263.0625 326.785156 C 262.878906 326.714844 262.730469 326.601562 262.582031 326.53125 C 262.546875 326.492188 262.511719 326.492188 262.472656 326.457031 L 262.328125 326.382812 C 262.253906 326.347656 262.214844 326.347656 262.179688 326.308594 L 261.996094 326.238281 C 261.996094 326.238281 261.960938 326.238281 261.960938 326.199219 C 261.371094 325.90625 260.75 325.648438 260.125 325.390625 C 260.125 325.390625 260.089844 325.355469 260.050781 325.355469 C 259.976562 325.320312 259.867188 325.28125 259.792969 325.246094 C 259.757812 325.207031 259.683594 325.207031 259.648438 325.171875 C 259.464844 325.097656 259.242188 325.027344 259.023438 324.914062 C 258.839844 324.84375 258.65625 324.769531 258.472656 324.695312 L 258.328125 324.660156 C 258.105469 324.585938 257.886719 324.511719 257.628906 324.4375 C 257.117188 324.253906 256.636719 324.109375 256.199219 323.996094 C 255.941406 323.925781 255.722656 323.851562 255.5 323.816406 C 255.464844 323.816406 255.425781 323.777344 255.390625 323.777344 L 255.207031 323.742188 C 255.171875 323.742188 255.171875 323.742188 255.132812 323.742188 C 254.695312 323.632812 254.328125 323.558594 253.960938 323.449219 C 253.886719 323.449219 253.847656 323.410156 253.777344 323.410156 C 253.703125 323.410156 253.628906 323.375 253.554688 323.375 C 253.003906 323.265625 252.492188 323.152344 251.941406 323.082031 C 251.722656 323.042969 251.464844 323.007812 251.242188 322.96875 C 251.207031 322.96875 251.171875 322.96875 251.132812 322.96875 C 250.875 322.933594 250.65625 322.898438 250.398438 322.859375 C 250.363281 322.859375 250.328125 322.859375 250.289062 322.859375 C 250.105469 322.824219 249.921875 322.824219 249.777344 322.824219 L 249.371094 322.785156 C 249.1875 322.785156 248.96875 322.75 248.75 322.75 C 248.675781 322.75 248.601562 322.75 248.566406 322.75 C 248.382812 322.75 248.199219 322.714844 248.050781 322.714844 C 248.050781 322.714844 248.015625 322.714844 248.015625 322.714844 C 247.902344 322.714844 247.832031 322.714844 247.722656 322.714844 L 247.648438 322.714844 C 247.132812 322.675781 246.65625 322.675781 246.214844 322.675781 C 234.804688 322.675781 224.269531 327.886719 217.296875 337.027344 C 215.425781 339.265625 212.820312 340.511719 210.105469 340.511719 Z M 268.308594 330.347656 Z M 266.65625 329.136719 C 266.65625 329.136719 266.695312 329.171875 266.695312 329.171875 C 266.695312 329.171875 266.65625 329.136719 266.65625 329.136719 Z M 266.472656 329.023438 Z M 248.085938 322.75 Z M 248.085938 322.75 Z M 248.050781 322.75 C 248.085938 322.75 248.085938 322.75 248.050781 322.75 C 248.085938 322.75 248.085938 322.75 248.050781 322.75 Z M 248.050781 322.75 Z M 247.609375 322.75 C 247.648438 322.75 247.648438 322.75 247.609375 322.75 Z M 247.609375 322.75 " fill-opacity="1" fill-rule="nonzero"/><path fill="#f7b44b" d="M 209.113281 359.777344 C 208.671875 359.777344 208.234375 359.742188 207.792969 359.667969 C 202.984375 358.933594 199.644531 354.457031 200.378906 349.648438 C 200.453125 349.097656 200.527344 348.585938 200.601562 348.035156 C 200.601562 348 200.601562 348 200.601562 347.960938 C 200.636719 347.632812 200.671875 347.265625 200.710938 346.898438 C 200.710938 346.714844 200.746094 346.53125 200.746094 346.457031 C 200.785156 346.308594 200.785156 346.164062 200.785156 346.054688 C 200.785156 345.980469 200.785156 345.941406 200.820312 345.871094 C 200.855469 345.648438 200.855469 345.394531 200.894531 345.171875 C 200.894531 345.136719 200.894531 345.097656 200.894531 345.0625 L 200.929688 344.84375 C 200.929688 344.769531 200.929688 344.730469 200.929688 344.660156 L 200.929688 344.511719 C 200.929688 344.402344 200.929688 344.292969 200.96875 344.179688 C 200.96875 344.144531 200.96875 344.070312 200.96875 344.035156 C 201.003906 343.632812 201.039062 343.191406 201.078125 342.785156 C 201.113281 342.347656 201.152344 341.871094 201.152344 341.390625 C 201.152344 341.320312 201.152344 341.246094 201.152344 341.136719 C 201.152344 341.0625 201.152344 341.027344 201.152344 340.953125 C 201.152344 340.953125 201.152344 340.914062 201.152344 340.914062 C 201.152344 340.660156 201.1875 340.363281 201.1875 340.109375 L 201.1875 340.070312 C 201.1875 340.035156 201.1875 339.996094 201.1875 339.960938 C 201.1875 339.667969 201.222656 339.410156 201.222656 339.117188 C 201.222656 339.082031 201.222656 339.042969 201.222656 339.007812 C 201.222656 338.96875 201.222656 338.96875 201.222656 338.933594 L 201.222656 338.898438 C 201.222656 338.566406 201.261719 338.238281 201.261719 337.90625 C 201.261719 337.832031 201.261719 337.757812 201.261719 337.722656 L 201.261719 337.574219 C 201.261719 337.464844 201.261719 337.355469 201.261719 337.246094 C 201.261719 336.769531 201.261719 336.253906 201.261719 335.777344 C 201.261719 334.457031 201.222656 333.28125 201.1875 332.144531 C 201.113281 330.089844 201.738281 328.070312 202.984375 326.417969 C 213.335938 312.914062 228.96875 305.132812 245.921875 305.132812 C 246.582031 305.132812 247.28125 305.132812 248.015625 305.171875 C 248.050781 305.171875 248.050781 305.171875 248.085938 305.171875 L 248.269531 305.171875 C 248.417969 305.171875 248.527344 305.171875 248.675781 305.171875 C 248.96875 305.171875 249.261719 305.207031 249.519531 305.207031 L 249.554688 305.207031 C 249.886719 305.246094 250.253906 305.246094 250.582031 305.28125 C 250.804688 305.28125 251.023438 305.316406 251.28125 305.355469 C 251.609375 305.390625 251.941406 305.429688 252.234375 305.464844 C 252.636719 305.5 253.003906 305.574219 253.410156 305.613281 C 253.410156 305.613281 253.445312 305.613281 253.445312 305.613281 C 253.777344 305.648438 254.105469 305.722656 254.472656 305.757812 C 255.28125 305.867188 256.125 306.050781 256.894531 306.199219 L 257.003906 306.234375 C 257.152344 306.273438 257.300781 306.308594 257.445312 306.34375 C 258.03125 306.457031 258.621094 306.601562 259.242188 306.785156 L 259.28125 306.785156 C 259.425781 306.824219 259.609375 306.859375 259.757812 306.894531 C 260.089844 306.96875 260.457031 307.078125 260.820312 307.191406 C 261.519531 307.371094 262.253906 307.59375 262.949219 307.851562 C 263.316406 307.960938 263.722656 308.105469 264.125 308.253906 L 264.273438 308.328125 C 264.527344 308.4375 264.785156 308.511719 265.042969 308.621094 C 265.371094 308.730469 265.703125 308.878906 266.035156 308.988281 C 266.253906 309.0625 266.472656 309.171875 266.695312 309.246094 C 267.609375 309.613281 268.492188 310.015625 269.371094 310.457031 C 269.554688 310.527344 269.703125 310.601562 269.886719 310.710938 C 270.035156 310.785156 270.179688 310.859375 270.289062 310.933594 C 270.546875 311.078125 270.804688 311.191406 271.0625 311.335938 C 272.234375 311.960938 273.410156 312.621094 274.511719 313.316406 C 274.730469 313.429688 274.914062 313.574219 275.132812 313.722656 L 275.316406 313.832031 C 275.574219 314.015625 275.832031 314.164062 276.089844 314.347656 C 276.160156 314.382812 276.234375 314.457031 276.308594 314.492188 C 276.34375 314.527344 276.34375 314.527344 276.382812 314.527344 C 276.675781 314.710938 276.96875 314.933594 277.261719 315.152344 C 277.554688 315.375 277.886719 315.59375 278.179688 315.8125 C 278.472656 316.035156 278.730469 316.21875 279.023438 316.4375 C 279.132812 316.511719 279.246094 316.621094 279.355469 316.695312 C 279.5 316.804688 279.648438 316.914062 279.796875 317.0625 C 280.050781 317.28125 280.308594 317.464844 280.566406 317.683594 C 280.859375 317.941406 281.152344 318.199219 281.445312 318.417969 C 285.117188 321.613281 285.484375 327.191406 282.289062 330.859375 C 279.097656 334.53125 273.519531 334.898438 269.851562 331.703125 C 269.667969 331.519531 269.445312 331.375 269.261719 331.191406 C 269.117188 331.082031 268.933594 330.933594 268.785156 330.785156 C 268.785156 330.785156 268.75 330.75 268.75 330.75 C 268.640625 330.675781 268.527344 330.566406 268.457031 330.492188 C 268.417969 330.457031 268.382812 330.457031 268.34375 330.417969 L 268.234375 330.347656 C 268.199219 330.308594 268.160156 330.273438 268.125 330.273438 C 268.015625 330.199219 267.90625 330.089844 267.792969 330.015625 C 267.722656 329.980469 267.683594 329.941406 267.609375 329.90625 C 267.425781 329.796875 267.28125 329.648438 267.097656 329.539062 C 267.0625 329.503906 266.988281 329.464844 266.949219 329.429688 C 266.804688 329.320312 266.621094 329.207031 266.472656 329.097656 L 266.4375 329.0625 C 266.328125 328.988281 266.253906 328.953125 266.179688 328.878906 C 266.03125 328.769531 265.921875 328.695312 265.777344 328.621094 L 265.554688 328.476562 C 265.519531 328.4375 265.484375 328.4375 265.484375 328.402344 C 265.410156 328.363281 265.335938 328.292969 265.261719 328.253906 C 265.261719 328.253906 265.226562 328.21875 265.1875 328.21875 C 264.457031 327.742188 263.683594 327.300781 262.878906 326.898438 C 262.695312 326.824219 262.546875 326.714844 262.398438 326.640625 C 262.363281 326.601562 262.328125 326.601562 262.289062 326.566406 L 262.144531 326.492188 C 262.070312 326.457031 261.996094 326.417969 261.960938 326.382812 C 261.886719 326.347656 261.8125 326.308594 261.777344 326.308594 C 261.1875 326.015625 260.566406 325.757812 259.941406 325.503906 C 259.867188 325.464844 259.832031 325.464844 259.757812 325.429688 L 259.648438 325.390625 C 259.609375 325.355469 259.539062 325.355469 259.5 325.320312 C 259.316406 325.246094 259.132812 325.171875 258.949219 325.097656 C 258.914062 325.097656 258.914062 325.0625 258.878906 325.0625 C 258.695312 324.988281 258.511719 324.914062 258.328125 324.839844 L 258.179688 324.804688 C 257.960938 324.730469 257.738281 324.65625 257.480469 324.585938 C 256.96875 324.402344 256.492188 324.253906 256.050781 324.144531 C 256.015625 324.144531 255.941406 324.109375 255.90625 324.109375 C 255.757812 324.070312 255.609375 324.035156 255.464844 323.996094 C 255.390625 323.960938 255.316406 323.960938 255.207031 323.925781 L 255.023438 323.886719 C 254.988281 323.886719 254.988281 323.886719 254.949219 323.886719 C 254.511719 323.777344 254.144531 323.703125 253.777344 323.59375 C 253.703125 323.59375 253.664062 323.558594 253.59375 323.558594 L 253.335938 323.484375 C 252.859375 323.375 252.308594 323.300781 251.792969 323.191406 C 251.757812 323.191406 251.722656 323.191406 251.683594 323.152344 C 251.5 323.117188 251.28125 323.082031 251.097656 323.082031 C 251.058594 323.082031 251.023438 323.082031 250.988281 323.082031 C 250.730469 323.042969 250.472656 323.007812 250.253906 322.96875 C 250.214844 322.96875 250.179688 322.96875 250.144531 322.96875 C 249.960938 322.933594 249.777344 322.933594 249.628906 322.933594 C 249.554688 322.933594 249.480469 322.933594 249.445312 322.898438 C 249.371094 322.898438 249.335938 322.898438 249.261719 322.898438 C 249.042969 322.859375 248.859375 322.859375 248.636719 322.859375 C 248.636719 322.859375 248.601562 322.859375 248.601562 322.859375 L 248.566406 322.859375 C 248.34375 322.859375 248.160156 322.824219 247.941406 322.824219 C 247.941406 322.824219 247.902344 322.824219 247.902344 322.824219 C 247.832031 322.824219 247.792969 322.824219 247.722656 322.824219 L 247.5 322.824219 C 246.988281 322.785156 246.507812 322.785156 246.070312 322.785156 C 235.648438 322.785156 225.957031 327.152344 219.023438 334.859375 C 219.023438 335.152344 219.023438 335.484375 219.023438 335.777344 C 219.023438 336.363281 219.023438 336.953125 219.023438 337.539062 C 219.023438 337.613281 219.023438 337.6875 219.023438 337.757812 C 219.023438 337.90625 219.023438 338.089844 219.023438 338.238281 C 219.023438 338.640625 219.023438 339.082031 218.984375 339.484375 C 218.984375 339.519531 218.984375 339.59375 218.984375 339.632812 C 218.984375 339.667969 218.984375 339.703125 218.984375 339.742188 C 218.984375 340.109375 218.949219 340.476562 218.949219 340.84375 C 218.949219 341.210938 218.914062 341.578125 218.914062 341.941406 C 218.914062 342.015625 218.914062 342.125 218.914062 342.199219 C 218.914062 342.273438 218.914062 342.347656 218.914062 342.457031 C 218.875 342.972656 218.839844 343.519531 218.800781 344.035156 C 218.765625 344.621094 218.730469 345.171875 218.65625 345.722656 C 218.65625 345.761719 218.65625 345.796875 218.65625 345.871094 C 218.65625 345.90625 218.65625 345.90625 218.65625 345.945312 C 218.65625 346.089844 218.617188 346.199219 218.617188 346.347656 C 218.617188 346.492188 218.582031 346.675781 218.582031 346.824219 C 218.546875 347.15625 218.507812 347.484375 218.472656 347.851562 C 218.433594 348.109375 218.433594 348.367188 218.398438 348.621094 C 218.398438 348.660156 218.398438 348.660156 218.398438 348.695312 C 218.363281 349.210938 218.289062 349.722656 218.214844 350.238281 C 218.140625 350.933594 218.03125 351.632812 217.921875 352.328125 C 217.1875 356.621094 213.40625 359.777344 209.113281 359.777344 Z M 200.929688 344.953125 Z M 201.222656 341.464844 Z M 201.222656 341.464844 Z M 201.222656 340.988281 C 201.222656 341.027344 201.222656 341.027344 201.222656 340.988281 C 201.222656 341.027344 201.222656 341.027344 201.222656 340.988281 Z M 201.371094 339.851562 C 201.296875 340.179688 201.261719 340.511719 201.222656 340.804688 C 201.261719 340.476562 201.296875 340.144531 201.371094 339.851562 Z M 218.984375 337.539062 Z M 201.335938 337.355469 Z M 201.335938 337.355469 Z M 201.335938 337.355469 Z M 268.308594 330.347656 C 268.308594 330.382812 268.308594 330.382812 268.308594 330.347656 C 268.308594 330.382812 268.308594 330.382812 268.308594 330.347656 Z M 266.695312 329.171875 Z M 266.65625 329.171875 C 266.65625 329.171875 266.695312 329.171875 266.65625 329.171875 C 266.695312 329.171875 266.65625 329.171875 266.65625 329.171875 Z M 266.65625 329.136719 Z M 266.472656 329.023438 Z M 248.085938 322.75 Z M 248.085938 322.75 Z M 248.050781 322.75 C 248.085938 322.75 248.085938 322.75 248.050781 322.75 C 248.085938 322.75 248.085938 322.75 248.050781 322.75 Z M 248.050781 322.75 " fill-opacity="1" fill-rule="nonzero"/><path fill="#f7b44b" d="M 159.863281 106.667969 L 177.515625 106.667969 L 177.515625 246.34375 L 159.863281 246.34375 Z M 159.863281 106.667969 " fill-opacity="1" fill-rule="nonzero"/><g clip-path="url(#d291f94c6b)"><path fill="#f7b44b" d="M 168.746094 120.101562 L 167.132812 119.808594 C 166.285156 119.660156 158.800781 118.15625 151.128906 113.3125 C 140.011719 106.265625 134.140625 95.917969 134.140625 83.328125 C 134.140625 72.210938 138.875 58.449219 148.230469 42.484375 C 154.910156 31.070312 161.554688 22.703125 161.808594 22.335938 L 168.710938 13.640625 L 175.609375 22.335938 C 175.902344 22.703125 182.507812 31.070312 189.1875 42.484375 C 198.546875 58.449219 203.277344 72.210938 203.277344 83.328125 C 203.277344 95.917969 197.40625 106.300781 186.289062 113.3125 C 178.617188 118.15625 171.132812 119.660156 170.289062 119.808594 Z M 168.78125 42.886719 C 161.1875 54.300781 151.792969 71.253906 151.792969 83.292969 C 151.792969 89.566406 154.542969 94.414062 160.195312 98.15625 C 163.425781 100.285156 166.800781 101.457031 168.746094 102.046875 C 170.691406 101.457031 174.066406 100.285156 177.296875 98.15625 C 182.949219 94.449219 185.699219 89.566406 185.699219 83.292969 C 185.738281 71.253906 176.34375 54.300781 168.78125 42.886719 Z M 168.78125 42.886719 " fill-opacity="1" fill-rule="nonzero"/><path fill="#f7b44b" d="M 168.746094 120.101562 L 167.132812 119.808594 C 166.285156 119.660156 158.800781 118.15625 151.128906 113.3125 C 140.011719 106.265625 134.140625 95.917969 134.140625 83.328125 C 134.140625 72.210938 138.875 58.449219 148.230469 42.484375 C 154.910156 31.070312 161.554688 22.703125 161.808594 22.335938 L 168.710938 13.640625 L 175.609375 22.335938 C 175.902344 22.703125 182.507812 31.070312 189.1875 42.484375 C 198.546875 58.449219 203.277344 72.210938 203.277344 83.328125 C 203.277344 95.917969 197.40625 106.300781 186.289062 113.3125 C 178.617188 118.15625 171.132812 119.660156 170.289062 119.808594 Z M 168.78125 42.886719 C 161.1875 54.300781 151.792969 71.253906 151.792969 83.292969 C 151.792969 89.566406 154.542969 94.414062 160.195312 98.15625 C 163.425781 100.285156 166.800781 101.457031 168.746094 102.046875 C 170.691406 101.457031 174.066406 100.285156 177.296875 98.15625 C 182.949219 94.449219 185.699219 89.566406 185.699219 83.292969 C 185.738281 71.253906 176.34375 54.300781 168.78125 42.886719 Z M 168.78125 42.886719 " fill-opacity="1" fill-rule="nonzero"/></g><path fill="#f7b44b" d="M 159.863281 206.671875 L 159.863281 165.496094 C 159.863281 149.644531 167.460938 134.488281 180.160156 125.019531 L 233.296875 85.347656 L 233.296875 126.523438 C 233.296875 142.378906 225.703125 157.535156 213.003906 167 Z M 215.644531 120.503906 L 190.726562 139.148438 C 182.472656 145.3125 177.515625 155.183594 177.515625 165.496094 L 177.515625 171.480469 L 202.433594 152.871094 C 210.691406 146.707031 215.644531 136.835938 215.644531 126.523438 Z M 215.644531 120.503906 " fill-opacity="1" fill-rule="nonzero"/><path fill="#f7b44b" d="M 177.515625 206.5625 L 124.5625 167.40625 C 111.753906 157.902344 104.082031 142.742188 104.082031 126.78125 L 104.082031 85.640625 L 157.074219 124.980469 C 169.847656 134.488281 177.480469 149.644531 177.480469 165.570312 L 177.480469 206.5625 Z M 121.734375 120.6875 L 121.734375 126.742188 C 121.734375 137.128906 126.726562 147 135.058594 153.203125 L 159.863281 171.550781 L 159.863281 165.535156 C 159.863281 155.183594 154.910156 145.3125 146.578125 139.109375 Z M 121.734375 120.6875 " fill-opacity="1" fill-rule="nonzero"/><path fill="#f7b44b" d="M 168.636719 244.65625 L 124.378906 211.628906 C 111.679688 202.121094 104.082031 187.003906 104.082031 171.148438 L 104.082031 130.304688 L 157.039062 169.460938 C 169.847656 178.964844 177.515625 194.121094 177.515625 210.085938 L 177.515625 238.011719 Z M 121.734375 165.277344 L 121.734375 171.113281 C 121.734375 181.425781 126.691406 191.296875 134.945312 197.460938 L 159.863281 216.066406 L 159.863281 210.050781 C 159.863281 199.664062 154.875 189.792969 146.542969 183.589844 Z M 121.734375 165.277344 " fill-opacity="1" fill-rule="nonzero"/><path fill="#f7b44b" d="M 159.863281 251.222656 L 159.863281 209.976562 C 159.863281 194.121094 167.460938 178.964844 180.160156 169.496094 L 233.296875 129.828125 L 233.296875 170.929688 C 233.296875 186.746094 225.738281 201.867188 213.078125 211.371094 Z M 215.644531 164.984375 L 190.726562 183.589844 C 182.472656 189.753906 177.515625 199.625 177.515625 209.9375 L 177.515625 215.921875 L 202.507812 197.203125 C 210.765625 191.039062 215.683594 181.203125 215.683594 170.890625 L 215.683594 164.984375 Z M 215.644531 164.984375 " fill-opacity="1" fill-rule="nonzero"/><g fill="#ffffff" fill-opacity="1"><g transform="translate(11.212815, 23.562326)"><g><path d="M 1.171875 -8.5 L 3.5625 -4.65625 L 6.03125 -8.5 L 7.234375 -8.5 L 4.0625 -3.65625 L 4.0625 0 L 3.0625 0 L 3.0625 -3.65625 L -0.109375 -8.5 Z M 1.171875 -8.5 "/></g></g></g><g fill="#ffffff" fill-opacity="1"><g transform="translate(18.340824, 23.562326)"><g><path d="M 3.5625 -5.765625 C 4.4375 -5.765625 5.148438 -5.492188 5.703125 -4.953125 C 6.253906 -4.410156 6.539062 -3.695312 6.5625 -2.8125 C 6.5625 -1.957031 6.28125 -1.253906 5.71875 -0.703125 C 5.164062 -0.148438 4.445312 0.128906 3.5625 0.140625 C 2.6875 0.140625 1.972656 -0.132812 1.421875 -0.6875 C 0.867188 -1.25 0.582031 -1.957031 0.5625 -2.8125 C 0.5625 -3.675781 0.84375 -4.378906 1.40625 -4.921875 C 1.96875 -5.472656 2.6875 -5.753906 3.5625 -5.765625 Z M 1.578125 -2.8125 C 1.578125 -2.195312 1.757812 -1.695312 2.125 -1.3125 C 2.5 -0.9375 2.976562 -0.738281 3.5625 -0.71875 C 4.144531 -0.71875 4.617188 -0.910156 4.984375 -1.296875 C 5.359375 -1.691406 5.550781 -2.195312 5.5625 -2.8125 C 5.5625 -3.414062 5.375 -3.910156 5 -4.296875 C 4.625 -4.691406 4.140625 -4.890625 3.546875 -4.890625 C 2.972656 -4.890625 2.5 -4.695312 2.125 -4.3125 C 1.757812 -3.925781 1.578125 -3.425781 1.578125 -2.8125 Z M 1.578125 -2.8125 "/></g></g></g><g fill="#ffffff" fill-opacity="1"><g transform="translate(25.468834, 23.562326)"><g><path d="M 1.828125 -5.609375 L 1.828125 -2.203125 C 1.828125 -1.773438 1.925781 -1.421875 2.125 -1.140625 C 2.332031 -0.867188 2.660156 -0.726562 3.109375 -0.71875 C 3.679688 -0.71875 4.113281 -0.910156 4.40625 -1.296875 C 4.695312 -1.679688 4.84375 -2.191406 4.84375 -2.828125 L 4.84375 -5.609375 L 5.78125 -5.609375 L 5.78125 -1.25 C 5.789062 -1.019531 5.804688 -0.601562 5.828125 0 L 4.9375 0 C 4.9375 -0.382812 4.929688 -0.691406 4.921875 -0.921875 L 4.890625 -0.921875 C 4.753906 -0.609375 4.515625 -0.351562 4.171875 -0.15625 C 3.828125 0.0390625 3.441406 0.140625 3.015625 0.140625 C 2.328125 0.128906 1.800781 -0.0703125 1.4375 -0.46875 C 1.070312 -0.875 0.890625 -1.414062 0.890625 -2.09375 L 0.890625 -5.609375 Z M 1.828125 -5.609375 "/></g></g></g><g fill="#ffffff" fill-opacity="1"><g transform="translate(32.140842, 23.562326)"><g><path d="M 3.640625 -5.765625 C 3.785156 -5.765625 3.914062 -5.742188 4.03125 -5.703125 L 3.96875 -4.75 C 3.789062 -4.800781 3.625 -4.828125 3.46875 -4.828125 C 2.925781 -4.828125 2.515625 -4.644531 2.234375 -4.28125 C 1.960938 -3.925781 1.828125 -3.425781 1.828125 -2.78125 L 1.828125 0 L 0.890625 0 L 0.890625 -4.375 C 0.890625 -4.476562 0.875 -4.890625 0.84375 -5.609375 L 1.734375 -5.609375 C 1.742188 -5.054688 1.75 -4.75 1.75 -4.6875 L 1.78125 -4.6875 C 1.925781 -5.007812 2.171875 -5.269531 2.515625 -5.46875 C 2.859375 -5.664062 3.234375 -5.765625 3.640625 -5.765625 Z M 3.640625 -5.765625 "/></g></g></g><g fill="#ffffff" fill-opacity="1"><g transform="translate(36.364856, 23.562326)"><g/></g></g><g fill="#ffffff" fill-opacity="1"><g transform="translate(39.700866, 23.562326)"><g><path d="M 3.8125 -5.765625 C 4.695312 -5.765625 5.40625 -5.484375 5.9375 -4.921875 C 6.476562 -4.359375 6.753906 -3.65625 6.765625 -2.8125 C 6.765625 -1.96875 6.492188 -1.265625 5.953125 -0.703125 C 5.410156 -0.148438 4.742188 0.128906 3.953125 0.140625 C 3.472656 0.140625 3.039062 0.0351562 2.65625 -0.171875 C 2.269531 -0.378906 1.984375 -0.65625 1.796875 -1 L 1.78125 -1 L 1.78125 2.734375 L 0.84375 2.734375 L 0.84375 -5.609375 L 1.78125 -5.609375 L 1.78125 -4.796875 L 1.796875 -4.796875 C 2.347656 -5.441406 3.019531 -5.765625 3.8125 -5.765625 Z M 1.78125 -2.8125 C 1.78125 -2.195312 1.960938 -1.695312 2.328125 -1.3125 C 2.703125 -0.9375 3.179688 -0.738281 3.765625 -0.71875 C 4.347656 -0.71875 4.820312 -0.910156 5.1875 -1.296875 C 5.5625 -1.691406 5.753906 -2.195312 5.765625 -2.8125 C 5.765625 -3.414062 5.578125 -3.910156 5.203125 -4.296875 C 4.828125 -4.691406 4.34375 -4.890625 3.75 -4.890625 C 3.175781 -4.890625 2.703125 -4.695312 2.328125 -4.3125 C 1.960938 -3.925781 1.78125 -3.425781 1.78125 -2.8125 Z M 1.78125 -2.8125 "/></g></g></g><g fill="#ffffff" fill-opacity="1"><g transform="translate(47.032877, 23.562326)"><g><path d="M 3.046875 -5.765625 C 3.859375 -5.765625 4.453125 -5.570312 4.828125 -5.1875 C 5.203125 -4.800781 5.394531 -4.21875 5.40625 -3.4375 L 5.40625 -0.921875 C 5.40625 -0.679688 5.429688 -0.375 5.484375 0 L 4.578125 0 C 4.546875 -0.0703125 4.53125 -0.351562 4.53125 -0.84375 L 4.5 -0.84375 C 4.070312 -0.195312 3.457031 0.128906 2.65625 0.140625 C 2.039062 0.140625 1.535156 -0.0078125 1.140625 -0.3125 C 0.753906 -0.625 0.5625 -1.03125 0.5625 -1.53125 C 0.5625 -2.207031 0.84375 -2.703125 1.40625 -3.015625 C 1.96875 -3.328125 2.84375 -3.484375 4.03125 -3.484375 L 4.46875 -3.484375 L 4.46875 -3.640625 C 4.46875 -4.460938 4.003906 -4.878906 3.078125 -4.890625 C 2.398438 -4.890625 1.84375 -4.6875 1.40625 -4.28125 L 0.8125 -4.890625 C 1.394531 -5.453125 2.140625 -5.742188 3.046875 -5.765625 Z M 1.578125 -1.625 C 1.578125 -0.988281 1.988281 -0.660156 2.8125 -0.640625 C 3.300781 -0.640625 3.695312 -0.796875 4 -1.109375 C 4.3125 -1.421875 4.46875 -1.878906 4.46875 -2.484375 L 4.46875 -2.703125 L 3.4375 -2.703125 C 2.882812 -2.703125 2.4375 -2.613281 2.09375 -2.4375 C 1.75 -2.257812 1.578125 -1.988281 1.578125 -1.625 Z M 1.578125 -1.625 "/></g></g></g><g fill="#ffffff" fill-opacity="1"><g transform="translate(53.260889, 23.562326)"><g><path d="M 3.640625 -5.765625 C 3.785156 -5.765625 3.914062 -5.742188 4.03125 -5.703125 L 3.96875 -4.75 C 3.789062 -4.800781 3.625 -4.828125 3.46875 -4.828125 C 2.925781 -4.828125 2.515625 -4.644531 2.234375 -4.28125 C 1.960938 -3.925781 1.828125 -3.425781 1.828125 -2.78125 L 1.828125 0 L 0.890625 0 L 0.890625 -4.375 C 0.890625 -4.476562 0.875 -4.890625 0.84375 -5.609375 L 1.734375 -5.609375 C 1.742188 -5.054688 1.75 -4.75 1.75 -4.6875 L 1.78125 -4.6875 C 1.925781 -5.007812 2.171875 -5.269531 2.515625 -5.46875 C 2.859375 -5.664062 3.234375 -5.765625 3.640625 -5.765625 Z M 3.640625 -5.765625 "/></g></g></g><g fill="#ffffff" fill-opacity="1"><g transform="translate(57.484903, 23.562326)"><g><path d="M 3.046875 -5.765625 C 3.859375 -5.765625 4.453125 -5.570312 4.828125 -5.1875 C 5.203125 -4.800781 5.394531 -4.21875 5.40625 -3.4375 L 5.40625 -0.921875 C 5.40625 -0.679688 5.429688 -0.375 5.484375 0 L 4.578125 0 C 4.546875 -0.0703125 4.53125 -0.351562 4.53125 -0.84375 L 4.5 -0.84375 C 4.070312 -0.195312 3.457031 0.128906 2.65625 0.140625 C 2.039062 0.140625 1.535156 -0.0078125 1.140625 -0.3125 C 0.753906 -0.625 0.5625 -1.03125 0.5625 -1.53125 C 0.5625 -2.207031 0.84375 -2.703125 1.40625 -3.015625 C 1.96875 -3.328125 2.84375 -3.484375 4.03125 -3.484375 L 4.46875 -3.484375 L 4.46875 -3.640625 C 4.46875 -4.460938 4.003906 -4.878906 3.078125 -4.890625 C 2.398438 -4.890625 1.84375 -4.6875 1.40625 -4.28125 L 0.8125 -4.890625 C 1.394531 -5.453125 2.140625 -5.742188 3.046875 -5.765625 Z M 1.578125 -1.625 C 1.578125 -0.988281 1.988281 -0.660156 2.8125 -0.640625 C 3.300781 -0.640625 3.695312 -0.796875 4 -1.109375 C 4.3125 -1.421875 4.46875 -1.878906 4.46875 -2.484375 L 4.46875 -2.703125 L 3.4375 -2.703125 C 2.882812 -2.703125 2.4375 -2.613281 2.09375 -2.4375 C 1.75 -2.257812 1.578125 -1.988281 1.578125 -1.625 Z M 1.578125 -1.625 "/></g></g></g><g fill="#ffffff" fill-opacity="1"><g transform="translate(63.712915, 23.562326)"><g><path d="M 3.546875 -5.765625 C 3.972656 -5.765625 4.367188 -5.660156 4.734375 -5.453125 C 5.097656 -5.253906 5.363281 -4.988281 5.53125 -4.65625 L 5.5625 -4.65625 L 5.5625 -5.609375 L 6.484375 -5.609375 L 6.484375 -0.1875 C 6.484375 0.769531 6.226562 1.515625 5.71875 2.046875 C 5.207031 2.585938 4.445312 2.863281 3.4375 2.875 C 2.882812 2.875 2.382812 2.796875 1.9375 2.640625 C 1.488281 2.484375 1.066406 2.207031 0.671875 1.8125 L 1.34375 1.046875 C 1.945312 1.691406 2.644531 2.015625 3.4375 2.015625 C 4.851562 2.015625 5.5625 1.265625 5.5625 -0.234375 L 5.5625 -0.96875 L 5.53125 -0.96875 C 5.320312 -0.632812 5.03125 -0.375 4.65625 -0.1875 C 4.289062 -0.0078125 3.921875 0.078125 3.546875 0.078125 C 2.679688 0.078125 1.972656 -0.191406 1.421875 -0.734375 C 0.867188 -1.273438 0.582031 -1.96875 0.5625 -2.8125 C 0.5625 -3.707031 0.832031 -4.421875 1.375 -4.953125 C 1.925781 -5.484375 2.648438 -5.753906 3.546875 -5.765625 Z M 1.578125 -2.8125 C 1.578125 -2.25 1.765625 -1.769531 2.140625 -1.375 C 2.523438 -0.988281 2.992188 -0.796875 3.546875 -0.796875 C 4.160156 -0.796875 4.648438 -0.988281 5.015625 -1.375 C 5.378906 -1.769531 5.5625 -2.253906 5.5625 -2.828125 C 5.5625 -3.441406 5.375 -3.9375 5 -4.3125 C 4.625 -4.695312 4.140625 -4.890625 3.546875 -4.890625 C 2.972656 -4.890625 2.5 -4.691406 2.125 -4.296875 C 1.757812 -3.898438 1.578125 -3.40625 1.578125 -2.8125 Z M 1.578125 -2.8125 "/></g></g></g><g fill="#ffffff" fill-opacity="1"><g transform="translate(71.044926, 23.562326)"><g><path d="M 3.640625 -5.765625 C 3.785156 -5.765625 3.914062 -5.742188 4.03125 -5.703125 L 3.96875 -4.75 C 3.789062 -4.800781 3.625 -4.828125 3.46875 -4.828125 C 2.925781 -4.828125 2.515625 -4.644531 2.234375 -4.28125 C 1.960938 -3.925781 1.828125 -3.425781 1.828125 -2.78125 L 1.828125 0 L 0.890625 0 L 0.890625 -4.375 C 0.890625 -4.476562 0.875 -4.890625 0.84375 -5.609375 L 1.734375 -5.609375 C 1.742188 -5.054688 1.75 -4.75 1.75 -4.6875 L 1.78125 -4.6875 C 1.925781 -5.007812 2.171875 -5.269531 2.515625 -5.46875 C 2.859375 -5.664062 3.234375 -5.765625 3.640625 -5.765625 Z M 3.640625 -5.765625 "/></g></g></g><g fill="#ffffff" fill-opacity="1"><g transform="translate(75.26894, 23.562326)"><g><path d="M 3.046875 -5.765625 C 3.859375 -5.765625 4.453125 -5.570312 4.828125 -5.1875 C 5.203125 -4.800781 5.394531 -4.21875 5.40625 -3.4375 L 5.40625 -0.921875 C 5.40625 -0.679688 5.429688 -0.375 5.484375 0 L 4.578125 0 C 4.546875 -0.0703125 4.53125 -0.351562 4.53125 -0.84375 L 4.5 -0.84375 C 4.070312 -0.195312 3.457031 0.128906 2.65625 0.140625 C 2.039062 0.140625 1.535156 -0.0078125 1.140625 -0.3125 C 0.753906 -0.625 0.5625 -1.03125 0.5625 -1.53125 C 0.5625 -2.207031 0.84375 -2.703125 1.40625 -3.015625 C 1.96875 -3.328125 2.84375 -3.484375 4.03125 -3.484375 L 4.46875 -3.484375 L 4.46875 -3.640625 C 4.46875 -4.460938 4.003906 -4.878906 3.078125 -4.890625 C 2.398438 -4.890625 1.84375 -4.6875 1.40625 -4.28125 L 0.8125 -4.890625 C 1.394531 -5.453125 2.140625 -5.742188 3.046875 -5.765625 Z M 1.578125 -1.625 C 1.578125 -0.988281 1.988281 -0.660156 2.8125 -0.640625 C 3.300781 -0.640625 3.695312 -0.796875 4 -1.109375 C 4.3125 -1.421875 4.46875 -1.878906 4.46875 -2.484375 L 4.46875 -2.703125 L 3.4375 -2.703125 C 2.882812 -2.703125 2.4375 -2.613281 2.09375 -2.4375 C 1.75 -2.257812 1.578125 -1.988281 1.578125 -1.625 Z M 1.578125 -1.625 "/></g></g></g><g fill="#ffffff" fill-opacity="1"><g transform="translate(81.496952, 23.562326)"><g><path d="M 3.8125 -5.765625 C 4.695312 -5.765625 5.40625 -5.484375 5.9375 -4.921875 C 6.476562 -4.359375 6.753906 -3.65625 6.765625 -2.8125 C 6.765625 -1.96875 6.492188 -1.265625 5.953125 -0.703125 C 5.410156 -0.148438 4.742188 0.128906 3.953125 0.140625 C 3.472656 0.140625 3.039062 0.0351562 2.65625 -0.171875 C 2.269531 -0.378906 1.984375 -0.65625 1.796875 -1 L 1.78125 -1 L 1.78125 2.734375 L 0.84375 2.734375 L 0.84375 -5.609375 L 1.78125 -5.609375 L 1.78125 -4.796875 L 1.796875 -4.796875 C 2.347656 -5.441406 3.019531 -5.765625 3.8125 -5.765625 Z M 1.78125 -2.8125 C 1.78125 -2.195312 1.960938 -1.695312 2.328125 -1.3125 C 2.703125 -0.9375 3.179688 -0.738281 3.765625 -0.71875 C 4.347656 -0.71875 4.820312 -0.910156 5.1875 -1.296875 C 5.5625 -1.691406 5.753906 -2.195312 5.765625 -2.8125 C 5.765625 -3.414062 5.578125 -3.910156 5.203125 -4.296875 C 4.828125 -4.691406 4.34375 -4.890625 3.75 -4.890625 C 3.175781 -4.890625 2.703125 -4.695312 2.328125 -4.3125 C 1.960938 -3.925781 1.78125 -3.425781 1.78125 -2.8125 Z M 1.78125 -2.8125 "/></g></g></g><g fill="#ffffff" fill-opacity="1"><g transform="translate(88.828964, 23.562326)"><g><path d="M 1.828125 -9.078125 L 1.828125 -4.84375 L 1.84375 -4.84375 C 2.007812 -5.113281 2.253906 -5.332031 2.578125 -5.5 C 2.910156 -5.675781 3.269531 -5.765625 3.65625 -5.765625 C 4.363281 -5.765625 4.894531 -5.554688 5.25 -5.140625 C 5.601562 -4.734375 5.78125 -4.191406 5.78125 -3.515625 L 5.78125 0 L 4.84375 0 L 4.84375 -3.40625 C 4.84375 -3.84375 4.742188 -4.195312 4.546875 -4.46875 C 4.347656 -4.75 4.019531 -4.890625 3.5625 -4.890625 C 2.988281 -4.890625 2.554688 -4.695312 2.265625 -4.3125 C 1.972656 -3.9375 1.828125 -3.425781 1.828125 -2.78125 L 1.828125 0 L 0.890625 0 L 0.890625 -9.078125 Z M 1.828125 -9.078125 "/></g></g></g><g fill="#ffffff" fill-opacity="1"><g transform="translate(95.500972, 23.562326)"><g/></g></g><g fill="#ffffff" fill-opacity="1"><g transform="translate(98.836981, 23.562326)"><g><path d="M 2.296875 -7.21875 L 2.296875 -5.609375 L 3.953125 -5.609375 L 3.953125 -4.828125 L 2.296875 -4.828125 L 2.296875 -1.828125 C 2.296875 -1.378906 2.367188 -1.082031 2.515625 -0.9375 C 2.660156 -0.789062 2.867188 -0.71875 3.140625 -0.71875 C 3.453125 -0.71875 3.726562 -0.78125 3.96875 -0.90625 L 4.015625 -0.0625 C 3.691406 0.0703125 3.328125 0.140625 2.921875 0.140625 C 2.335938 0.140625 1.929688 0 1.703125 -0.28125 C 1.484375 -0.5625 1.375 -1.03125 1.375 -1.6875 L 1.375 -4.828125 L 0.140625 -4.828125 L 0.140625 -5.609375 L 1.375 -5.609375 L 1.375 -7.21875 Z M 2.296875 -7.21875 "/></g></g></g><g fill="#ffffff" fill-opacity="1"><g transform="translate(103.060995, 23.562326)"><g><path d="M 3.4375 -5.765625 C 4.269531 -5.765625 4.921875 -5.5 5.390625 -4.96875 C 5.859375 -4.445312 6.097656 -3.707031 6.109375 -2.75 L 6.109375 -2.515625 L 1.578125 -2.515625 C 1.617188 -1.992188 1.8125 -1.566406 2.15625 -1.234375 C 2.5 -0.898438 2.921875 -0.726562 3.421875 -0.71875 C 4.179688 -0.71875 4.773438 -1.003906 5.203125 -1.578125 L 5.90625 -1.015625 C 5.601562 -0.628906 5.253906 -0.335938 4.859375 -0.140625 C 4.460938 0.046875 3.984375 0.140625 3.421875 0.140625 C 2.566406 0.140625 1.878906 -0.132812 1.359375 -0.6875 C 0.835938 -1.25 0.570312 -1.957031 0.5625 -2.8125 C 0.5625 -3.65625 0.828125 -4.351562 1.359375 -4.90625 C 1.890625 -5.457031 2.582031 -5.742188 3.4375 -5.765625 Z M 5.09375 -3.3125 C 5.070312 -3.800781 4.914062 -4.1875 4.625 -4.46875 C 4.332031 -4.75 3.921875 -4.890625 3.390625 -4.890625 C 2.910156 -4.890625 2.503906 -4.753906 2.171875 -4.484375 C 1.847656 -4.210938 1.648438 -3.820312 1.578125 -3.3125 Z M 5.09375 -3.3125 "/></g></g></g><g fill="#ffffff" fill-opacity="1"><g transform="translate(109.733003, 23.562326)"><g><path d="M 1.546875 -5.609375 L 3.03125 -3.59375 L 4.4375 -5.609375 L 5.578125 -5.609375 L 3.640625 -3.03125 L 5.96875 0 L 4.734375 0 L 2.953125 -2.421875 L 1.203125 0 L 0.03125 0 L 2.34375 -3.03125 L 0.328125 -5.609375 Z M 1.546875 -5.609375 "/></g></g></g><g fill="#ffffff" fill-opacity="1"><g transform="translate(115.733015, 23.562326)"><g><path d="M 2.296875 -7.21875 L 2.296875 -5.609375 L 3.953125 -5.609375 L 3.953125 -4.828125 L 2.296875 -4.828125 L 2.296875 -1.828125 C 2.296875 -1.378906 2.367188 -1.082031 2.515625 -0.9375 C 2.660156 -0.789062 2.867188 -0.71875 3.140625 -0.71875 C 3.453125 -0.71875 3.726562 -0.78125 3.96875 -0.90625 L 4.015625 -0.0625 C 3.691406 0.0703125 3.328125 0.140625 2.921875 0.140625 C 2.335938 0.140625 1.929688 0 1.703125 -0.28125 C 1.484375 -0.5625 1.375 -1.03125 1.375 -1.6875 L 1.375 -4.828125 L 0.140625 -4.828125 L 0.140625 -5.609375 L 1.375 -5.609375 L 1.375 -7.21875 Z M 2.296875 -7.21875 "/></g></g></g></svg>